<svg width="104" height="22" viewBox="0 0 104 22" fill="none" xmlns="http://www.w3.org/2000/svg">
<g clip-path="url(#clip0_351_3806)">
<mask id="mask0_351_3806" style="mask-type:luminance" maskUnits="userSpaceOnUse" x="0" y="0" width="21" height="22">
<path d="M20.7273 0.63623H0V21.3635H20.7273V0.63623Z" fill="white"/>
</mask>
<g mask="url(#mask0_351_3806)">
<path fill-rule="evenodd" clip-rule="evenodd" d="M9.82002 19.2487C14.0813 19.2487 17.5358 15.7942 17.5358 11.5329C17.5358 7.27163 14.0813 3.81719 9.82002 3.81719C5.55875 3.81719 2.10429 7.27163 2.10429 11.5329C2.10429 15.7942 5.55875 19.2487 9.82002 19.2487ZM9.82002 21.3529C15.2435 21.3529 19.6401 16.9564 19.6401 11.5329C19.6401 6.10947 15.2435 1.71289 9.82002 1.71289C4.39658 1.71289 0 6.10947 0 11.5329C0 16.9564 4.39658 21.3529 9.82002 21.3529Z" fill="white"/>
<path d="M20.7109 8.82368C20.2178 6.84141 19.193 5.03132 17.747 3.58853C16.301 2.14575 14.4886 1.12497 12.5052 0.63623L8.4873 12.9185L20.7109 8.82368Z" fill="#EA5471"/>
</g>
</g>
<path d="M28.7642 15V6.6H32.4362C33.3482 6.6 34.1482 6.776 34.8362 7.128C35.5242 7.48 36.0602 7.968 36.4442 8.592C36.8282 9.216 37.0202 9.952 37.0202 10.8C37.0202 11.64 36.8282 12.376 36.4442 13.008C36.0602 13.632 35.5242 14.12 34.8362 14.472C34.1482 14.824 33.3482 15 32.4362 15H28.7642ZM30.3242 13.68H32.3642C32.9962 13.68 33.5402 13.56 33.9962 13.32C34.4602 13.08 34.8162 12.744 35.0642 12.312C35.3202 11.88 35.4482 11.376 35.4482 10.8C35.4482 10.216 35.3202 9.712 35.0642 9.288C34.8162 8.856 34.4602 8.52 33.9962 8.28C33.5402 8.04 32.9962 7.92 32.3642 7.92H30.3242V13.68ZM41.2823 15.12C40.6263 15.12 39.9983 15.028 39.3983 14.844C38.7983 14.652 38.3223 14.408 37.9703 14.112L38.5103 12.9C38.8463 13.164 39.2623 13.384 39.7583 13.56C40.2543 13.736 40.7623 13.824 41.2823 13.824C41.7223 13.824 42.0783 13.776 42.3503 13.68C42.6223 13.584 42.8223 13.456 42.9503 13.296C43.0783 13.128 43.1423 12.94 43.1423 12.732C43.1423 12.476 43.0503 12.272 42.8663 12.12C42.6823 11.96 42.4423 11.836 42.1463 11.748C41.8583 11.652 41.5343 11.564 41.1743 11.484C40.8223 11.404 40.4663 11.312 40.1063 11.208C39.7543 11.096 39.4303 10.956 39.1343 10.788C38.8463 10.612 38.6103 10.38 38.4263 10.092C38.2423 9.804 38.1503 9.436 38.1503 8.988C38.1503 8.532 38.2703 8.116 38.5103 7.74C38.7583 7.356 39.1303 7.052 39.6263 6.828C40.1303 6.596 40.7663 6.48 41.5343 6.48C42.0383 6.48 42.5383 6.544 43.0343 6.672C43.5303 6.8 43.9623 6.984 44.3303 7.224L43.8383 8.436C43.4623 8.212 43.0743 8.048 42.6743 7.944C42.2743 7.832 41.8903 7.776 41.5223 7.776C41.0903 7.776 40.7383 7.828 40.4663 7.932C40.2023 8.036 40.0063 8.172 39.8783 8.34C39.7583 8.508 39.6983 8.7 39.6983 8.916C39.6983 9.172 39.7863 9.38 39.9623 9.54C40.1463 9.692 40.3823 9.812 40.6703 9.9C40.9663 9.988 41.2943 10.076 41.6543 10.164C42.0143 10.244 42.3703 10.336 42.7223 10.44C43.0823 10.544 43.4063 10.68 43.6943 10.848C43.9903 11.016 44.2263 11.244 44.4023 11.532C44.5863 11.82 44.6783 12.184 44.6783 12.624C44.6783 13.072 44.5543 13.488 44.3063 13.872C44.0663 14.248 43.6943 14.552 43.1903 14.784C42.6863 15.008 42.0503 15.12 41.2823 15.12ZM50.9336 13.02L50.8496 11.172L55.2536 6.6H57.0056L53.3456 10.488L52.4816 11.436L50.9336 13.02ZM49.5416 15V6.6H51.1016V15H49.5416ZM55.3976 15L52.1816 11.172L53.2136 10.032L57.2216 15H55.3976ZM56.7325 15L60.5125 6.6H62.0485L65.8405 15H64.2085L60.9565 7.428H61.5805L58.3405 15H56.7325ZM58.4725 13.056L58.8925 11.832H63.4285L63.8485 13.056H58.4725ZM66.9088 15V6.6H68.1928L73.4608 13.068H72.8248V6.6H74.3728V15H73.0888L67.8208 8.532H68.4568V15H66.9088ZM76.6236 15V6.6H80.5596C81.5676 6.6 82.3356 6.8 82.8636 7.2C83.3916 7.592 83.6556 8.12 83.6556 8.784C83.6556 9.232 83.5516 9.616 83.3436 9.936C83.1356 10.248 82.8556 10.492 82.5036 10.668C82.1596 10.836 81.7836 10.92 81.3756 10.92L81.5916 10.488C82.0636 10.488 82.4876 10.576 82.8636 10.752C83.2396 10.92 83.5356 11.168 83.7516 11.496C83.9756 11.824 84.0876 12.232 84.0876 12.72C84.0876 13.44 83.8116 14 83.2596 14.4C82.7076 14.8 81.8876 15 80.7996 15H76.6236ZM78.1836 13.776H80.7036C81.2876 13.776 81.7356 13.68 82.0476 13.488C82.3596 13.296 82.5156 12.988 82.5156 12.564C82.5156 12.148 82.3596 11.844 82.0476 11.652C81.7356 11.452 81.2876 11.352 80.7036 11.352H78.0636V10.14H80.3916C80.9356 10.14 81.3516 10.044 81.6396 9.852C81.9356 9.66 82.0836 9.372 82.0836 8.988C82.0836 8.596 81.9356 8.304 81.6396 8.112C81.3516 7.92 80.9356 7.824 80.3916 7.824H78.1836V13.776ZM84.5645 15L88.3445 6.6H89.8805L93.6725 15H92.0405L88.7885 7.428H89.4125L86.1725 15H84.5645ZM86.3045 13.056L86.7245 11.832H91.2605L91.6805 13.056H86.3045ZM94.7408 15V6.6H96.0248L101.293 13.068H100.657V6.6H102.205V15H100.921L95.6528 8.532H96.2888V15H94.7408Z" fill="white"/>
<defs>
<clipPath id="clip0_351_3806">
<rect width="20.7273" height="20.7273" fill="white" transform="translate(0 0.63623)"/>
</clipPath>
</defs>
</svg>
