<svg xmlns="http://www.w3.org/2000/svg">
<symbol id='kanban'  >
<path fill-rule="evenodd" clip-rule="evenodd" d="M14 3H4C3.44772 3 3 3.44772 3 4V14C3 14.5523 3.44772 15 4 15H14C14.5523 15 15 14.5523 15 14V4C15 3.44772 14.5523 3 14 3ZM4 2C2.89543 2 2 2.89543 2 4V14C2 15.1046 2.89543 16 4 16H14C15.1046 16 16 15.1046 16 14V4C16 2.89543 15.1046 2 14 2H4Z" fill="#787878"/>
<path fill-rule="evenodd" clip-rule="evenodd" d="M6.5 15L6.5 3L7.5 3L7.5 15L6.5 15Z" fill="#787878"/>
<path fill-rule="evenodd" clip-rule="evenodd" d="M11 15L11 3L12 3L12 15L11 15Z" fill="#787878"/>
</symbol>

<symbol id='tasks' width="18" height="18" viewBox="0 0 18 18" fill="none">
<path fill-rule="evenodd" clip-rule="evenodd" d="M10 10.5C10 10.7761 9.77614 11 9.5 11H5.5C5.22386 11 5 10.7761 5 10.5C5 10.2239 5.22386 10 5.5 10H9.5C9.77614 10 10 10.2239 10 10.5Z" fill="#787878"/>
<path fill-rule="evenodd" clip-rule="evenodd" d="M13 12.5C13 12.7761 12.7761 13 12.5 13L5.5 13C5.22386 13 5 12.7761 5 12.5C5 12.2239 5.22386 12 5.5 12H12.5C12.7761 12 13 12.2239 13 12.5Z" fill="#787878"/>
<path fill-rule="evenodd" clip-rule="evenodd" d="M10.5 2H7.5C7.22386 2 7 2.22386 7 2.5C7 2.77614 7.22386 3 7.5 3H10.5C10.7761 3 11 2.77614 11 2.5C11 2.22386 10.7761 2 10.5 2ZM7.5 1C6.67157 1 6 1.67157 6 2.5C6 3.32843 6.67157 4 7.5 4H10.5C11.3284 4 12 3.32843 12 2.5C12 1.67157 11.3284 1 10.5 1H7.5Z" fill="#787878"/>
<path fill-rule="evenodd" clip-rule="evenodd" d="M6.08535 2C6.03008 2.15639 6 2.32468 6 2.5C6 2.67532 6.03008 2.84361 6.08535 3H5C4.44772 3 4 3.44772 4 4V14C4 14.5523 4.44772 15 5 15H13C13.5523 15 14 14.5523 14 14V4C14 3.44772 13.5523 3 13 3H11.9146C11.9699 2.84361 12 2.67532 12 2.5C12 2.32468 11.9699 2.15639 11.9146 2H13C14.1046 2 15 2.89543 15 4V14C15 15.1046 14.1046 16 13 16H5C3.89543 16 3 15.1046 3 14V4C3 2.89543 3.89543 2 5 2H6.08535Z" fill="#787878"/>
</symbol>

<symbol id='backlog' width="18" height="18" viewBox="0 0 18 18" fill="none">
<path d="M3.94346 14.5H14.0506C15.3325 14.5 16 13.7956 16 12.4497V8.72013C16 8.02201 15.9114 7.70126 15.5983 7.28616L13.6608 4.74528C12.9342 3.7956 12.6093 3.5 11.546 3.5H6.45401C5.38481 3.5 5.06582 3.7956 4.33924 4.74528L2.39578 7.28616C2.08861 7.70126 2 8.02201 2 8.72013V12.4497C2 13.7956 2.66751 14.5 3.94346 14.5ZM9 10.1101C8.20253 10.1101 7.70633 9.38679 7.70633 8.70755V8.68239C7.70633 8.43711 7.57046 8.2044 7.25738 8.2044H3.46498C3.27004 8.2044 3.22869 8.0283 3.32911 7.89623L5.4616 5.04717C5.72743 4.69497 6.02869 4.54403 6.42447 4.54403H11.5755C11.9713 4.54403 12.2726 4.69497 12.5325 5.04717L14.6709 7.89623C14.7654 8.0283 14.73 8.2044 14.535 8.2044H10.7367C10.4295 8.2044 10.2878 8.43711 10.2878 8.68239V8.70755C10.2878 9.38679 9.79156 10.1101 9 10.1101ZM4 13.5C3.45654 13.5 3 13.0535 3 12.4497V9.31132H6.70211C6.89114 10.4308 7.80675 11.2673 9 11.2673C10.1932 11.2673 11.1089 10.4308 11.2979 9.31132H15V12.4497C15 13.0535 14.5941 13.5 14.0506 13.5H4Z" fill="#787878"/>
</symbol>

<symbol id='budgets' width="18" height="18" viewBox="0 0 18 18" fill="none">
<path d="M8.99662 16C12.8333 16 16 12.8317 16 9C16 5.16828 12.8265 2 8.98985 2C5.15998 2 2 5.16828 2 9C2 12.8317 5.16675 16 8.99662 16ZM8.99662 14.8573C5.89077 14.8573 3.19343 12.1073 3.19343 9C3.19343 5.89265 5.89077 3.22822 8.98985 3.22822C12.0957 3.22822 14.8435 5.89265 14.8502 9C14.857 12.1073 12.1025 14.8573 8.99662 14.8573Z" fill="#787878"/>
<path fill-rule="evenodd" clip-rule="evenodd" d="M10 9.5C10 9.77614 9.77614 10 9.5 10H5.5C5.22386 10 5 9.77614 5 9.5C5 9.22386 5.22386 9 5.5 9H9.5C9.77614 9 10 9.22386 10 9.5Z" fill="#787878"/>
<path fill-rule="evenodd" clip-rule="evenodd" d="M9.5 10C9.22386 10 9 9.77614 9 9.5L9 5.5C9 5.22386 9.22386 5 9.5 5C9.77614 5 10 5.22386 10 5.5L10 9.5C10 9.77614 9.77614 10 9.5 10Z" fill="#787878"/>
</symbol>

<symbol id='dashboard' width="18" height="18" viewBox="0 0 18 18" fill="none">
<path fill-rule="evenodd" clip-rule="evenodd" d="M8 2.5H4C3.44772 2.5 3 2.94772 3 3.5V6.5C3 7.05228 3.44772 7.5 4 7.5H8C8.55228 7.5 9 7.05228 9 6.5V3.5C9 2.94772 8.55228 2.5 8 2.5ZM4 1.5C2.89543 1.5 2 2.39543 2 3.5V6.5C2 7.60457 2.89543 8.5 4 8.5H8C9.10457 8.5 10 7.60457 10 6.5V3.5C10 2.39543 9.10457 1.5 8 1.5H4Z" fill="#787878"/>
<path fill-rule="evenodd" clip-rule="evenodd" d="M5 10.5H4C3.44772 10.5 3 10.9477 3 11.5V14.5C3 15.0523 3.44772 15.5 4 15.5H5C5.55228 15.5 6 15.0523 6 14.5V11.5C6 10.9477 5.55228 10.5 5 10.5ZM4 9.5C2.89543 9.5 2 10.3954 2 11.5V14.5C2 15.6046 2.89543 16.5 4 16.5H5C6.10457 16.5 7 15.6046 7 14.5V11.5C7 10.3954 6.10457 9.5 5 9.5H4Z" fill="#787878"/>
<path fill-rule="evenodd" clip-rule="evenodd" d="M14 2.5H13C12.4477 2.5 12 2.94772 12 3.5V6.5C12 7.05228 12.4477 7.5 13 7.5H14C14.5523 7.5 15 7.05228 15 6.5V3.5C15 2.94772 14.5523 2.5 14 2.5ZM13 1.5C11.8954 1.5 11 2.39543 11 3.5V6.5C11 7.60457 11.8954 8.5 13 8.5H14C15.1046 8.5 16 7.60457 16 6.5V3.5C16 2.39543 15.1046 1.5 14 1.5H13Z" fill="#787878"/>
<path fill-rule="evenodd" clip-rule="evenodd" d="M14 10.5H10C9.44772 10.5 9 10.9477 9 11.5V14.5C9 15.0523 9.44772 15.5 10 15.5H14C14.5523 15.5 15 15.0523 15 14.5V11.5C15 10.9477 14.5523 10.5 14 10.5ZM10 9.5C8.89543 9.5 8 10.3954 8 11.5V14.5C8 15.6046 8.89543 16.5 10 16.5H14C15.1046 16.5 16 15.6046 16 14.5V11.5C16 10.3954 15.1046 9.5 14 9.5H10Z" fill="#787878"/>
</symbol>

<symbol id='executors' width="18" height="18" viewBox="0 0 18 18" fill="none">
<path d="M7.04104 10.028C6.76135 10.371 6.54812 10.7434 6.41213 11.1668C6.31169 11.4836 6.26533 11.8235 6.26533 12.1558V13.2281V13.6222L6.80617 13.0813H5.46339H3.34024C3.17336 13.0813 3.0003 13.0937 2.8334 13.0782C2.8813 13.0844 2.9292 13.0906 2.9771 13.0983C2.94929 13.0937 2.92457 13.0875 2.8983 13.0782C2.94156 13.0968 2.98483 13.1153 3.0281 13.1323C2.99719 13.1199 2.96938 13.1029 2.94311 13.0829C2.98019 13.1107 3.01573 13.1385 3.05282 13.1678C3.03273 13.1509 3.01419 13.1323 2.99719 13.1122C3.025 13.1493 3.05282 13.1848 3.08218 13.2219C3.06209 13.1957 3.04664 13.1678 3.03273 13.1369C3.05127 13.1802 3.06982 13.2235 3.08681 13.2667C3.07754 13.2405 3.07136 13.2157 3.06673 13.1879C3.07291 13.2358 3.07909 13.2837 3.08681 13.3316C3.06827 13.1308 3.08372 12.9206 3.08372 12.7182C3.08372 12.491 3.07291 12.2608 3.10227 12.0367C3.09608 12.0847 3.0899 12.1326 3.08218 12.1805C3.1069 12.0012 3.1548 11.8266 3.22434 11.6582C3.20579 11.7014 3.18725 11.7447 3.17025 11.788C3.23979 11.6242 3.32786 11.4728 3.43603 11.3306C3.40821 11.3677 3.3804 11.4032 3.35104 11.4403C3.4623 11.295 3.59209 11.1668 3.7358 11.0555C3.69871 11.0834 3.66317 11.1112 3.62609 11.1405C3.7667 11.0339 3.91969 10.9443 4.08349 10.8747C4.04022 10.8933 3.99695 10.9118 3.95369 10.9288C4.12057 10.8593 4.29518 10.8114 4.47596 10.7867C4.42806 10.7929 4.38016 10.799 4.33225 10.8068C4.62738 10.7681 4.93333 10.7882 5.23001 10.7882H6.41982C6.58052 10.7882 6.73967 10.7867 6.89884 10.8068C6.85093 10.8006 6.80303 10.7944 6.75513 10.7867C6.93592 10.8129 7.11053 10.8608 7.27896 10.9304C7.39949 10.9798 7.58954 10.9381 7.69618 10.8763C7.80898 10.8114 7.9156 10.6816 7.94496 10.5533C7.97587 10.4143 7.96968 10.2597 7.89088 10.1361C7.86306 10.099 7.83525 10.0635 7.80589 10.0264C7.7379 9.95996 7.65909 9.9136 7.56792 9.88733C7.12909 9.705 6.66861 9.70654 6.20505 9.70654H4.94107C4.52849 9.70654 4.11748 9.71272 3.72499 9.86415C3.36959 10.0017 3.04663 10.1948 2.77312 10.4652C2.49962 10.7356 2.30645 11.057 2.16585 11.4109C1.98506 11.8652 2.00206 12.3489 2.00206 12.8279C2.00206 12.9824 1.99742 13.1369 2.00206 13.2899C2.01442 13.7782 2.39456 14.1537 2.88284 14.1645C3.50401 14.1769 4.12673 14.1645 4.74792 14.1645H6.77062H6.80616C7.0982 14.1645 7.34699 13.9173 7.34699 13.6237V12.2206C7.34699 12.0707 7.35163 11.9208 7.37172 11.7709C7.36554 11.8188 7.35935 11.8667 7.35163 11.9146C7.38408 11.6798 7.44589 11.4511 7.53705 11.2317C7.51851 11.2749 7.49997 11.3182 7.48297 11.3615C7.57723 11.1405 7.69776 10.9334 7.84456 10.7418C7.81674 10.7789 7.78893 10.8144 7.75957 10.8515C7.77502 10.8314 7.79047 10.8129 7.80592 10.7944C7.89864 10.68 7.96508 10.5657 7.96508 10.4127C7.96508 10.2798 7.90636 10.1222 7.80592 10.031C7.70239 9.93675 7.56796 9.86567 7.42425 9.87185C7.28982 9.87494 7.13065 9.9182 7.04105 10.0279L7.04104 10.028Z" fill="#787878"/>
<path d="M3.37502 6.89731C3.37811 7.3377 3.50636 7.79507 3.7644 8.15665C4.04871 8.55531 4.42267 8.84428 4.88315 9.01426C5.71911 9.32332 6.75131 9.04671 7.31687 8.35444C7.4853 8.14893 7.60584 7.94341 7.70626 7.69773C7.79279 7.48758 7.83297 7.26353 7.85151 7.03791C7.88705 6.59596 7.76962 6.12777 7.54093 5.7492C7.31842 5.37991 6.98 5.05539 6.58443 4.87925C6.33565 4.76799 6.10233 4.70464 5.8319 4.67064C5.60166 4.64283 5.36987 4.66446 5.14427 4.70773C4.28514 4.87616 3.54959 5.62869 3.41518 6.49709C3.39201 6.62998 3.37502 6.76287 3.37502 6.89731C3.37347 7.18009 3.62533 7.45048 3.91584 7.43814C4.21097 7.42423 4.45513 7.20017 4.45668 6.8973C4.45668 6.81849 4.46286 6.73969 4.47368 6.66088C4.4675 6.70878 4.46132 6.75668 4.45359 6.80458C4.47522 6.65933 4.51385 6.51872 4.56948 6.38428C4.55094 6.42755 4.5324 6.47082 4.5154 6.51408C4.57412 6.37656 4.64983 6.24676 4.741 6.12778C4.71319 6.16486 4.68537 6.2004 4.65602 6.23749C4.74409 6.12623 4.84453 6.02579 4.95578 5.93772C4.91869 5.96554 4.88315 5.99335 4.84607 6.02271C4.96505 5.93154 5.0933 5.85583 5.23238 5.79711C5.18911 5.81565 5.14584 5.83419 5.10258 5.85119C5.23856 5.79556 5.37917 5.75693 5.52288 5.7353C5.47497 5.74148 5.42707 5.74766 5.37917 5.75539C5.53678 5.7353 5.69439 5.7353 5.85047 5.75539C5.80257 5.74921 5.75467 5.74303 5.70677 5.7353C5.85202 5.75693 5.99263 5.79556 6.12707 5.85119C6.0838 5.83265 6.04053 5.81411 5.99727 5.79711C6.13479 5.85583 6.26459 5.93154 6.38357 6.02271C6.34649 5.9949 6.31095 5.96708 6.27387 5.93772C6.38512 6.0258 6.48556 6.12624 6.57363 6.23749C6.54581 6.2004 6.518 6.16486 6.48864 6.12778C6.57981 6.24676 6.65552 6.37501 6.71424 6.51408C6.6957 6.47082 6.67716 6.42755 6.66016 6.38428C6.71579 6.52026 6.75442 6.66088 6.77605 6.80458C6.76987 6.75668 6.76369 6.70878 6.75596 6.66088C6.77605 6.81849 6.77605 6.9761 6.75596 7.13218C6.76214 7.08428 6.76833 7.03638 6.77605 6.98848C6.75442 7.13373 6.71579 7.27434 6.66016 7.40878C6.6787 7.36551 6.69724 7.32224 6.71424 7.27898C6.65553 7.4165 6.57981 7.5463 6.48864 7.66528C6.51645 7.6282 6.54427 7.59266 6.57363 7.55557C6.48555 7.66683 6.38511 7.76727 6.27387 7.85534C6.31095 7.82752 6.34649 7.79971 6.38357 7.77035C6.26459 7.86152 6.13634 7.93723 5.99727 7.99595C6.04053 7.97741 6.0838 7.95887 6.12707 7.94187C5.99109 7.9975 5.85047 8.03613 5.70677 8.05776C5.75467 8.05158 5.80257 8.0454 5.85047 8.03767C5.69286 8.05776 5.53525 8.05776 5.37917 8.03767C5.42707 8.04385 5.47497 8.05003 5.52288 8.05776C5.37763 8.03613 5.23702 7.9975 5.10258 7.94187C5.14584 7.96041 5.18911 7.97895 5.23238 7.99595C5.09485 7.93723 4.96505 7.86152 4.84607 7.77035C4.88315 7.79816 4.91869 7.82598 4.95578 7.85534C4.84452 7.76726 4.74408 7.66682 4.65602 7.55557C4.68383 7.59266 4.71165 7.6282 4.741 7.66528C4.64983 7.5463 4.57412 7.41805 4.5154 7.27898C4.53394 7.32224 4.55248 7.36551 4.56948 7.40878C4.51385 7.2728 4.47523 7.13218 4.45359 6.98848C4.45977 7.03638 4.46595 7.08428 4.47368 7.13218C4.46286 7.05337 4.45823 6.97611 4.45668 6.89576C4.45514 6.61298 4.20945 6.34102 3.91584 6.35492C3.6238 6.36883 3.37349 6.59445 3.37502 6.89731Z" fill="#787878"/>
<path d="M14.915 12.1353V13.7887C14.915 13.8706 14.9181 13.9525 14.9134 14.0343C14.9196 13.9864 14.9258 13.9385 14.9335 13.8906C14.9304 13.9123 14.9258 13.9308 14.9181 13.9509C14.9366 13.9076 14.9552 13.8644 14.9722 13.8211C14.9629 13.8396 14.9536 13.8551 14.9413 13.8721C14.9691 13.835 14.9969 13.7995 15.0262 13.7624C15.017 13.7732 15.0077 13.7825 14.9984 13.7902C15.0355 13.7624 15.0711 13.7346 15.1081 13.7052C15.0911 13.7176 15.0757 13.7268 15.0571 13.7361C15.1004 13.7176 15.1437 13.699 15.1869 13.682C15.1669 13.6898 15.1483 13.6944 15.1267 13.6975C15.1746 13.6913 15.2225 13.6851 15.2704 13.6774C14.9938 13.6913 14.7126 13.6789 14.4344 13.6789H12.4643H10.0862H8.02485C7.69418 13.6789 7.36195 13.6836 7.03128 13.6789C7.02046 13.6789 7.00964 13.6789 6.99728 13.6774C7.04518 13.6836 7.09308 13.6898 7.14098 13.6975C7.11935 13.6944 7.10081 13.6898 7.08072 13.682C7.12399 13.7006 7.16725 13.7191 7.21052 13.7361C7.19198 13.7269 7.17653 13.7176 7.15953 13.7052C7.19661 13.733 7.23215 13.7608 7.26924 13.7902C7.25842 13.7809 7.24915 13.7717 7.24143 13.7624C7.26924 13.7995 7.29705 13.835 7.32641 13.8721C7.31405 13.8551 7.30478 13.8397 7.29551 13.8211C7.31405 13.8644 7.33259 13.9076 7.34959 13.9509C7.34186 13.9308 7.33723 13.9123 7.33414 13.8906C7.34032 13.9385 7.3465 13.9864 7.35423 14.0343C7.34186 13.7933 7.35268 13.5507 7.35268 13.3097V12.2682C7.35268 12.1013 7.35577 11.9344 7.3774 11.7675C7.37122 11.8154 7.36504 11.8633 7.35732 11.9112C7.38977 11.6764 7.45157 11.4477 7.54274 11.2282C7.5242 11.2715 7.50566 11.3148 7.48866 11.358C7.58292 11.1371 7.70344 10.93 7.85024 10.7384C7.82243 10.7755 7.79461 10.811 7.76526 10.8481C7.90896 10.6642 8.07431 10.4989 8.25973 10.3552C8.22264 10.383 8.1871 10.4108 8.15002 10.4402C8.33544 10.298 8.53788 10.1806 8.75265 10.0894C8.70938 10.108 8.66612 10.1265 8.62285 10.1435C8.84381 10.0508 9.07406 9.98898 9.31203 9.95498C9.26413 9.96116 9.21622 9.96734 9.16832 9.97507C9.37075 9.9488 9.57161 9.95035 9.77559 9.95035H10.5837H12.4396C12.6605 9.95035 12.8815 9.94571 13.1009 9.97507C13.053 9.96889 13.0051 9.96271 12.9572 9.95498C13.1983 9.98898 13.4331 10.0523 13.6587 10.1466C13.6155 10.128 13.5722 10.1095 13.5289 10.0925C13.7422 10.1837 13.9415 10.3011 14.1254 10.4417C14.0883 10.4139 14.0528 10.3861 14.0157 10.3567C14.2026 10.502 14.3695 10.6689 14.5148 10.8558C14.487 10.8187 14.4591 10.7832 14.4298 10.7461C14.5704 10.93 14.6863 11.1293 14.779 11.3426C14.7605 11.2993 14.7419 11.256 14.7249 11.2128C14.8192 11.4368 14.8841 11.6717 14.9165 11.9143C14.9103 11.8664 14.9042 11.8185 14.8964 11.7706C14.9072 11.8927 14.915 12.0132 14.915 12.1353C14.9165 12.418 15.1622 12.6884 15.4558 12.6761C15.7479 12.6637 15.9982 12.4381 15.9966 12.1353C15.9936 11.3503 15.7092 10.6132 15.2101 10.0121C14.7605 9.46975 14.096 9.07725 13.4053 8.93973C13.0484 8.86865 12.6992 8.86865 12.3391 8.86865H11.0473H9.8065C9.37538 8.86865 8.94426 8.88874 8.53015 9.02626C7.71583 9.29668 7.00501 9.88232 6.62181 10.6549C6.41166 11.0799 6.29269 11.5295 6.26949 12.0039C6.26331 12.1322 6.2664 12.2604 6.2664 12.3871V13.7067C6.2664 13.8087 6.26485 13.9122 6.2664 14.0142C6.27567 14.4422 6.61561 14.7606 7.03901 14.7652C7.50413 14.7698 7.97079 14.7652 8.43591 14.7652H11.1091H13.7916C14.2676 14.7652 14.7435 14.7683 15.2194 14.7652C15.5702 14.7637 15.8823 14.5489 15.9735 14.2012C16.0121 14.0559 15.9967 13.8906 15.9967 13.7423V12.4227V12.1383C15.9967 11.8556 15.7479 11.5852 15.4558 11.5975C15.1622 11.6083 14.915 11.8324 14.915 12.1353Z" fill="#787878"/>
<path d="M13.0623 5.01352C13.0623 5.12787 13.0546 5.24221 13.0391 5.35657C13.0453 5.30867 13.0515 5.26077 13.0592 5.21287C13.0283 5.42611 12.9711 5.63317 12.8877 5.83251C12.9063 5.78924 12.9248 5.74598 12.9418 5.70271C12.8584 5.89586 12.7533 6.07819 12.625 6.24507C12.6528 6.20799 12.6807 6.17245 12.71 6.13536C12.5771 6.30688 12.4257 6.45832 12.2542 6.59121C12.2912 6.56339 12.3268 6.53558 12.3639 6.50622C12.197 6.63447 12.0147 6.73955 11.8215 6.82299C11.8648 6.80445 11.908 6.78591 11.9513 6.76891C11.752 6.85235 11.5449 6.90952 11.3317 6.94043C11.3796 6.93424 11.4275 6.92806 11.4754 6.92034C11.2482 6.95124 11.018 6.95124 10.7908 6.92034C10.8387 6.92652 10.8866 6.9327 10.9345 6.94043C10.7213 6.90952 10.5142 6.85235 10.3149 6.76891C10.3582 6.78745 10.4014 6.80599 10.4447 6.82299C10.2515 6.73955 10.0692 6.63447 9.90233 6.50622C9.93941 6.53403 9.97495 6.56185 10.012 6.59121C9.84052 6.45832 9.68908 6.3069 9.55619 6.13536C9.58401 6.17245 9.61182 6.20799 9.64118 6.24507C9.51293 6.07819 9.40785 5.89586 9.32441 5.70271C9.34295 5.74597 9.36149 5.78924 9.37849 5.83251C9.29505 5.63317 9.23787 5.42611 9.20697 5.21287C9.21315 5.26077 9.21933 5.30867 9.22706 5.35657C9.19615 5.12942 9.19615 4.89917 9.22706 4.67203C9.22088 4.71993 9.2147 4.76783 9.20697 4.81573C9.23788 4.60249 9.29505 4.39543 9.37849 4.19609C9.35995 4.23935 9.34141 4.28262 9.32441 4.32589C9.40785 4.13274 9.51293 3.9504 9.64118 3.78353C9.61337 3.82061 9.58555 3.85615 9.55619 3.89324C9.68908 3.72172 9.8405 3.57028 10.012 3.43739C9.97495 3.4652 9.93941 3.49302 9.90233 3.52238C10.0692 3.39412 10.2515 3.28905 10.4447 3.20561C10.4014 3.22415 10.3582 3.24269 10.3149 3.25969C10.5142 3.17625 10.7213 3.11907 10.9345 3.08817C10.8866 3.09435 10.8387 3.10053 10.7908 3.10826C11.018 3.07735 11.2482 3.07735 11.4754 3.10826C11.4275 3.10208 11.3796 3.0959 11.3317 3.08817C11.5449 3.11908 11.752 3.17625 11.9513 3.25969C11.908 3.24115 11.8648 3.2226 11.8215 3.20561C12.0147 3.28905 12.197 3.39412 12.3639 3.52238C12.3268 3.49456 12.2912 3.46675 12.2542 3.43739C12.4257 3.57028 12.5771 3.7217 12.71 3.89324C12.6822 3.85615 12.6544 3.82061 12.625 3.78353C12.7533 3.95041 12.8583 4.13273 12.9418 4.32589C12.9232 4.28262 12.9047 4.23936 12.8877 4.19609C12.9711 4.39542 13.0283 4.60249 13.0592 4.81573C13.053 4.76783 13.0469 4.71993 13.0391 4.67203C13.0546 4.78483 13.0623 4.89917 13.0623 5.01352C13.0639 5.2963 13.3096 5.56671 13.6032 5.55436C13.8952 5.542 14.1455 5.31639 14.144 5.01352C14.1409 4.40933 13.9617 3.7928 13.6078 3.29989C13.2307 2.77606 12.7301 2.38975 12.1228 2.16879C10.984 1.75313 9.60874 2.12553 8.83757 3.06192C8.61815 3.32924 8.45437 3.60584 8.32301 3.92569C8.20711 4.20999 8.1484 4.51286 8.12522 4.81881C8.07886 5.42144 8.23493 6.05035 8.5486 6.56647C8.85147 7.06557 9.30731 7.49206 9.84041 7.73466C9.99493 7.80419 10.1541 7.87064 10.3179 7.91545C10.4863 7.96335 10.6578 7.98807 10.8324 8.00816C11.143 8.04525 11.4582 8.02052 11.7642 7.95871C12.9308 7.72539 13.9121 6.71946 14.0959 5.54045C14.1237 5.36584 14.1438 5.18968 14.1454 5.01198C14.1469 4.7292 13.8951 4.4588 13.6045 4.47115C13.3094 4.4866 13.0637 4.71066 13.0622 5.01351L13.0623 5.01352Z" fill="#787878"/>
</symbol>

<symbol id='setting' width="18" height="18" viewBox="0 0 18 18" fill="none">
<path d="M8.34667 16H9.65333C10.1876 16 10.606 15.665 10.7347 15.1496L10.9922 14.0221L11.1595 13.9577L12.1444 14.5697C12.5949 14.8532 13.1292 14.7759 13.509 14.3958L14.4101 13.4938C14.7963 13.1072 14.8607 12.5789 14.5775 12.1344L13.966 11.1486L14.0303 10.994L15.1568 10.7299C15.6653 10.601 16 10.1822 16 9.64749V8.37828C16 7.84353 15.6717 7.42476 15.1568 7.2959L14.0368 7.02531L13.9724 6.8578L14.5839 5.87851C14.8671 5.43396 14.8028 4.90566 14.4166 4.51266L13.5154 3.61068C13.1421 3.23056 12.6078 3.15969 12.1572 3.43672L11.1724 4.04234L10.9922 3.97791L10.7347 2.84399C10.606 2.32858 10.1876 2 9.65333 2H8.34667C7.80598 2 7.38759 2.32858 7.26529 2.84399L7.00782 3.97791L6.82759 4.04234L5.84276 3.43672C5.38575 3.15969 4.85793 3.23056 4.4846 3.61068L3.57701 4.51266C3.19724 4.90566 3.12644 5.43396 3.40966 5.87851L4.02115 6.8578L3.95678 7.02531L2.84322 7.2959C2.32828 7.42476 2 7.84353 2 8.37828V9.64749C2 10.1822 2.33471 10.601 2.84322 10.7299L3.96966 10.994L4.02759 11.1486L3.41609 12.1344C3.13287 12.5789 3.20368 13.1072 3.58345 13.4938L4.49103 14.3958C4.86437 14.7759 5.39862 14.8532 5.8492 14.5697L6.83402 13.9577L7.00782 14.0221L7.26529 15.1496C7.38759 15.665 7.80598 16 8.34667 16ZM8.51402 14.8145C8.4046 14.8145 8.34667 14.7694 8.33379 14.6728L7.94759 13.0879C7.54207 12.9913 7.14943 12.8237 6.83402 12.624L5.44368 13.4809C5.36 13.5324 5.28276 13.526 5.20552 13.4487L4.52966 12.7722C4.45241 12.7013 4.45241 12.624 4.50391 12.5403L5.36 11.1486C5.17977 10.8394 5.01241 10.4528 4.91586 10.0469L3.32598 9.66682C3.22943 9.65393 3.17793 9.59595 3.17793 9.48642V8.5329C3.17793 8.41693 3.22299 8.37184 3.32598 8.34607L4.90943 7.97239C5.00598 7.54073 5.19264 7.14128 5.35356 6.85136L4.49747 5.47262C4.44598 5.38242 4.44598 5.30511 4.51678 5.2278L5.19908 4.55775C5.27632 4.48688 5.34713 4.474 5.44368 4.53198L6.82115 5.37598C7.1108 5.19558 7.54207 5.01519 7.95402 4.9121L8.33379 3.3272C8.34667 3.23056 8.4046 3.17902 8.51402 3.17902H9.48598C9.5954 3.17902 9.6469 3.22411 9.66621 3.3272L10.0524 4.91855C10.4708 5.02163 10.8506 5.19558 11.1724 5.37598L12.5499 4.53198C12.6464 4.48044 12.7172 4.48688 12.7945 4.5642L13.4768 5.23424C13.554 5.30511 13.554 5.38242 13.4961 5.47262L12.6464 6.85136C12.8009 7.14128 12.994 7.54073 13.0906 7.97239L14.674 8.34607C14.777 8.37184 14.8156 8.41693 14.8156 8.5329V9.48642C14.8156 9.59595 14.7706 9.65393 14.674 9.66682L13.0841 10.0469C12.9876 10.4528 12.8138 10.8458 12.6336 11.1486L13.4897 12.5338C13.5411 12.624 13.5411 12.6949 13.4639 12.7658L12.788 13.4487C12.7108 13.526 12.6336 13.5324 12.5499 13.4809L11.166 12.624C10.8441 12.8237 10.4772 12.9848 10.0524 13.0879L9.66621 14.6728C9.6469 14.7694 9.5954 14.8145 9.48598 14.8145H8.51402ZM9.00322 11.445C10.3421 11.445 11.4428 10.3433 11.4428 8.99678C11.4428 7.66314 10.3421 6.56144 9.00322 6.56144C7.65793 6.56144 6.5508 7.66314 6.5508 8.99678C6.5508 10.3433 7.65793 11.445 9.00322 11.445ZM9.00322 10.3304C8.26942 10.3304 7.6708 9.73125 7.6708 8.99678C7.6708 8.2752 8.27586 7.67602 9.00322 7.67602C9.7177 7.67602 10.3163 8.2752 10.3163 8.99678C10.3163 9.7248 9.7177 10.3304 9.00322 10.3304Z" fill="#787878"/>
</symbol>

<symbol id='project' width="18" height="18" viewBox="0 0 18 18" fill="none">
<path fill-rule="evenodd" clip-rule="evenodd" d="M14 3H7V8.5H15V4C15 3.44772 14.5523 3 14 3ZM16 8.5V9.5V14C16 15.1046 15.1046 16 14 16H4C2.89543 16 2 15.1046 2 14V4C2 2.89543 2.89543 2 4 2H14C15.1046 2 16 2.89543 16 4V8.5ZM15 9.5H7L7 15H14C14.5523 15 15 14.5523 15 14V9.5ZM4 3H6L6 15H4C3.44772 15 3 14.5523 3 14V4C3 3.44772 3.44772 3 4 3Z" fill="#787878"/>
</symbol>

<symbol id='users' width="18" height="18" viewBox="0 0 18 18" fill="none">
<path fill-rule="evenodd" clip-rule="evenodd" d="M9.52491 8.03029C10.914 8.03029 12.0401 6.90422 12.0401 5.51514C12.0401 4.12607 10.914 3 9.52491 3C8.13583 3 7.00977 4.12607 7.00977 5.51514C7.00977 6.90422 8.13583 8.03029 9.52491 8.03029ZM9.52491 9.03029C11.4663 9.03029 13.0401 7.45651 13.0401 5.51514C13.0401 3.57378 11.4663 2 9.52491 2C7.58355 2 6.00977 3.57378 6.00977 5.51514C6.00977 7.45651 7.58355 9.03029 9.52491 9.03029Z" fill="#787878"/>
<path fill-rule="evenodd" clip-rule="evenodd" d="M9.29001 10.9365C6.54483 10.9365 4.22465 12.7618 3.47936 15.266C3.40059 15.5307 3.12218 15.6814 2.85751 15.6026C2.59284 15.5238 2.44214 15.2454 2.5209 14.9808C3.38892 12.0642 6.09034 9.93652 9.29001 9.93652C12.4897 9.93652 15.1911 12.0642 16.0591 14.9808C16.1379 15.2454 15.9872 15.5238 15.7225 15.6026C15.4578 15.6814 15.1794 15.5307 15.1007 15.266C14.3554 12.7618 12.0352 10.9365 9.29001 10.9365Z" fill="#787878"/>
</symbol>

<symbol id='users' width="18" height="18" viewBox="0 0 18 18" fill="none">
<path fill-rule="evenodd" clip-rule="evenodd" d="M9.52491 8.03029C10.914 8.03029 12.0401 6.90422 12.0401 5.51514C12.0401 4.12607 10.914 3 9.52491 3C8.13583 3 7.00977 4.12607 7.00977 5.51514C7.00977 6.90422 8.13583 8.03029 9.52491 8.03029ZM9.52491 9.03029C11.4663 9.03029 13.0401 7.45651 13.0401 5.51514C13.0401 3.57378 11.4663 2 9.52491 2C7.58355 2 6.00977 3.57378 6.00977 5.51514C6.00977 7.45651 7.58355 9.03029 9.52491 9.03029Z" fill="#787878"/>
<path fill-rule="evenodd" clip-rule="evenodd" d="M9.29001 10.9365C6.54483 10.9365 4.22465 12.7618 3.47936 15.266C3.40059 15.5307 3.12218 15.6814 2.85751 15.6026C2.59284 15.5238 2.44214 15.2454 2.5209 14.9808C3.38892 12.0642 6.09034 9.93652 9.29001 9.93652C12.4897 9.93652 15.1911 12.0642 16.0591 14.9808C16.1379 15.2454 15.9872 15.5238 15.7225 15.6026C15.4578 15.6814 15.1794 15.5307 15.1007 15.266C14.3554 12.7618 12.0352 10.9365 9.29001 10.9365Z" fill="#787878"/>
</symbol>

<symbol id='reports' width="18" height="18" viewBox="0 0 18 18" fill="none">
<path fill-rule="evenodd" clip-rule="evenodd" d="M13 3H5C4.44772 3 4 3.44772 4 4V14C4 14.5523 4.44772 15 5 15H13C13.5523 15 14 14.5523 14 14V4C14 3.44772 13.5523 3 13 3ZM5 2C3.89543 2 3 2.89543 3 4V14C3 15.1046 3.89543 16 5 16H13C14.1046 16 15 15.1046 15 14V4C15 2.89543 14.1046 2 13 2H5ZM10 7.5C10 7.77614 9.77614 8 9.5 8H5.5C5.22386 8 5 7.77614 5 7.5C5 7.22386 5.22386 7 5.5 7H9.5C9.77614 7 10 7.22386 10 7.5ZM10.5 10C10.7761 10 11 9.77614 11 9.5C11 9.22386 10.7761 9 10.5 9H5.5C5.22386 9 5 9.22386 5 9.5C5 9.77614 5.22386 10 5.5 10H10.5ZM8 5.5C8 5.77614 7.77614 6 7.5 6H5.5C5.22386 6 5 5.77614 5 5.5C5 5.22386 5.22386 5 5.5 5H7.5C7.77614 5 8 5.22386 8 5.5ZM12.5 14C12.7761 14 13 13.7761 13 13.5C13 13.2239 12.7761 13 12.5 13H5.5C5.22386 13 5 13.2239 5 13.5C5 13.7761 5.22386 14 5.5 14H12.5Z" fill="#787878"/>
</symbol>

<symbol id='gradeList' width="18" height="18" viewBox="0 0 18 18" fill="none">
<path fill-rule="evenodd" clip-rule="evenodd" d="M7.70248 2.90821C7.97333 2.77278 8.29213 2.77278 8.56298 2.90821L14.7336 5.99351L14.7336 5.99352C14.7441 5.99876 14.7544 6.00413 14.7646 6.00965C14.7716 6.0128 14.7786 6.01612 14.7856 6.0196L16.2109 6.73228C16.392 6.82282 16.5064 7.0079 16.5064 7.21035V9.70472C16.5064 9.99992 16.2671 10.2392 15.9719 10.2392C15.6767 10.2392 15.4374 9.99992 15.4374 9.70472V7.5407L15.1125 7.37827C15.0244 7.5148 14.8981 7.63237 14.7336 7.71459L14.7336 7.7146L13.6559 8.25347V11.7803C13.6559 12.537 13.2202 13.2261 12.5366 13.5507L12.5366 13.5507L8.97321 15.2426L8.97319 15.2426C8.44128 15.4951 7.82395 15.4951 7.29205 15.2426L7.29203 15.2426L3.72866 13.5507L3.72865 13.5507C3.04503 13.2261 2.60938 12.537 2.60938 11.7803V8.25336L1.53185 7.7146L1.53184 7.7146C0.82272 7.36003 0.82272 6.34808 1.53184 5.99352L1.53184 5.99351L7.70248 2.90821ZM3.67839 8.78786V11.7803C3.67839 12.1242 3.87643 12.4375 4.18714 12.585L4.18716 12.585L7.75052 14.2769L7.75054 14.2769C7.99231 14.3917 8.27293 14.3917 8.5147 14.2769L8.51471 14.2769L12.0781 12.585L12.0781 12.585C12.3888 12.4375 12.5868 12.1242 12.5868 11.7803V8.78797L8.56309 10.7998C8.29218 10.9354 7.97327 10.9354 7.70236 10.7998L3.67839 8.78786ZM12.8903 7.44108C12.8851 7.44353 12.8801 7.44606 12.8751 7.44866L8.13273 9.81981L2.20115 6.85406L8.13273 3.88828L14.0643 6.85406L12.8903 7.44108Z" fill="#787878"/>
</symbol>

<symbol id='grading' width="18" height="18" viewBox="0 0 18 18" fill="none">
<path d="M9 4.21418C8.45727 3.57319 7.24846 3 5.82996 3C3.93656 3 2.40705 3.97997 2 4.91063V14.1618C2 14.7658 2.39471 15 2.8326 15C3.15947 15 3.34449 14.9014 3.55419 14.7473C3.97357 14.4083 4.65815 14.0139 5.82996 14.0139C7.00793 14.0139 7.80969 14.4083 8.1674 14.7103C8.36476 14.8582 8.59295 15 9 15C9.40705 15 9.62907 14.8459 9.8326 14.7103C10.215 14.4268 10.9921 14.0139 12.17 14.0139C13.3419 14.0139 14.0388 14.4145 14.4458 14.7473C14.6555 14.9014 14.8405 15 15.1674 15C15.6053 15 16 14.7658 16 14.1618V4.91063C15.593 3.97997 14.0696 3 12.17 3C10.7515 3 9.5489 3.57319 9 4.21418ZM3.25522 5.3359C3.42174 4.92912 4.41762 4.23883 5.82996 4.23883C7.24229 4.23883 8.27279 4.93529 8.42081 5.3359V13.4653C7.78557 13.0092 6.79207 12.7627 5.82996 12.7627C4.86167 12.7627 3.87813 12.9908 3.25522 13.4653V5.3359ZM14.7325 5.3359V13.4653C14.1096 12.9908 13.1383 12.7627 12.17 12.7627C11.2079 12.7627 10.247 13.0092 9.61179 13.4653V5.3359C9.7598 4.93529 10.7577 4.13674 12.17 4.13674C13.5824 4.13674 14.566 4.92912 14.7325 5.3359Z" fill="#787878"/>
</symbol>

<symbol id='grades' width="18" height="18" viewBox="0 0 18 18" fill="none">
<path fill-rule="evenodd" clip-rule="evenodd" d="M4.64878 3.14724C4.16427 3.14724 3.86253 3.44552 3.86253 3.93003V13.7556C3.86253 14.0463 3.53583 14.282 3.24512 14.282C2.95441 14.282 2.71875 14.0463 2.71875 13.7556V3.93003C2.71875 2.8641 3.58285 2 4.64878 2H14.0533C14.5766 2 15.0007 2.42421 15.0007 2.94747V12.1514C15.0007 12.4422 14.7651 12.6778 14.4744 12.6778C14.1837 12.6778 13.8617 12.4422 13.8617 12.1514V3.14724H4.64878Z" fill="#787878"/>
<path fill-rule="evenodd" clip-rule="evenodd" d="M6.05176 2C6.34247 2 6.63823 2.23566 6.63823 2.52637V7.13481L7.52242 6.55315C7.69539 6.44245 7.91694 6.44245 8.0899 6.55315L8.96986 7.13481V2.50139C8.96986 2.21068 9.27019 2 9.5609 2C9.85161 2 10.0873 2.23566 10.0873 2.52637V8.14099C10.0873 8.33335 9.98234 8.51039 9.8136 8.60274C9.64486 8.69509 9.43918 8.68803 9.27716 8.58434L7.80633 7.64301L6.3355 8.58434C6.17349 8.68803 5.96781 8.69509 5.79906 8.60274C5.63032 8.51039 5.52539 8.33335 5.52539 8.14099V2.52637C5.52539 2.23566 5.76105 2 6.05176 2Z" fill="#787878"/>
<path fill-rule="evenodd" clip-rule="evenodd" d="M4.12109 12.3521C4.12109 12.0613 4.35676 11.8257 4.64746 11.8257H14.4731C14.7638 11.8257 14.9994 12.0613 14.9994 12.3521C14.9994 12.6428 14.7638 12.9024 14.4731 12.9024H4.64746C4.35676 12.9024 4.12109 12.6428 4.12109 12.3521Z" fill="#787878"/>
<path fill-rule="evenodd" clip-rule="evenodd" d="M4.12109 15.1592C4.12109 14.8685 4.35676 14.5752 4.64746 14.5752L14.4731 14.5753C14.7638 14.5753 14.9994 14.8685 14.9994 15.1592C14.9994 15.4499 14.7638 15.6856 14.4731 15.6856H4.64746C4.35676 15.6856 4.12109 15.4499 4.12109 15.1592Z" fill="#787878"/>
<path fill-rule="evenodd" clip-rule="evenodd" d="M4.73984 12.9023C4.25532 12.9023 3.87207 13.2712 3.87207 13.7557C3.87207 14.2402 4.25532 14.5768 4.73984 14.5768C5.03055 14.5768 5.26621 14.8687 5.26621 15.1594C5.26621 15.4501 5.03055 15.6857 4.73984 15.6857C3.67392 15.6857 2.71875 14.8217 2.71875 13.7557C2.71875 12.6898 3.67392 11.8257 4.73984 11.8257C5.03055 11.8257 5.26621 12.0613 5.26621 12.3521C5.26621 12.6428 5.03055 12.9023 4.73984 12.9023Z" fill="#787878"/>
</symbol>

<symbol id='changeTask' width="20" height="21" viewBox="0 0 20 21" fill="none">
<path d="M17.8131 4.20723L18.4879 3.5357C18.8222 3.19993 18.8345 2.83308 18.5312 2.52219L18.2898 2.27347C17.9865 1.9688 17.6088 1.99989 17.2807 2.32943L16.606 2.99474L17.8131 4.20723ZM10.2299 11.8117L17.2188 4.79171L16.0179 3.59166L9.02891 10.5992L8.42225 12.0666C8.35415 12.2532 8.54605 12.4583 8.73177 12.3899L10.2299 11.8117Z" fill="#ABBED1"/>
<path fill-rule="evenodd" clip-rule="evenodd" d="M14.0637 3.53955H4.5C3.39543 3.53955 2.5 4.43498 2.5 5.53955V16.3123C2.5 17.4168 3.39543 18.3123 4.5 18.3123H15.2727C16.3773 18.3123 17.2727 17.4168 17.2727 16.3123V6.59808L15.9727 7.89808V16.3123C15.9727 16.6989 15.6593 17.0123 15.2727 17.0123H4.5C4.1134 17.0123 3.8 16.6989 3.8 16.3123V5.53955C3.8 5.15295 4.1134 4.83955 4.5 4.83955H12.7637L14.0637 3.53955Z" fill="#ABBED1"/>
</symbol>

<symbol id='moveInBacklog' width="20" height="21" viewBox="0 0 20 21" fill="none">
<path fill-rule="evenodd" clip-rule="evenodd" d="M15.417 5.91335H4.58205L5.15464 16.0928C5.18543 16.6402 5.20598 16.9922 5.24252 17.2597C5.27741 17.5151 5.31756 17.6102 5.34431 17.6579C5.44376 17.8355 5.59501 17.9785 5.77787 18.0678C5.82705 18.0918 5.92418 18.1266 6.18117 18.147C6.45027 18.1685 6.8029 18.1692 7.35117 18.1692H12.6479C13.1961 18.1692 13.5488 18.1685 13.8179 18.147C14.0749 18.1266 14.172 18.0918 14.2212 18.0678C14.404 17.9785 14.5553 17.8355 14.6547 17.6579C14.6815 17.6102 14.7216 17.5151 14.7565 17.2597C14.7931 16.9922 14.8136 16.6402 14.8444 16.0928L15.417 5.91335ZM16.4834 4.76066L16.4834 4.76059H15.4818H13.3118C13.2226 4.08812 13.1463 3.70107 12.9555 3.39561C12.7498 3.06616 12.4525 2.80375 12.1001 2.64044C11.7001 2.45508 11.2 2.45508 10.1999 2.45508H9.79804C8.7979 2.45508 8.29783 2.45508 7.89782 2.64044C7.54539 2.80375 7.24814 3.06616 7.04237 3.39561C6.85159 3.70107 6.77527 4.08812 6.68609 4.76059H4.51721H3.51562L3.51563 4.76066H2.50799C2.18968 4.76066 1.93164 5.0187 1.93164 5.33701C1.93164 5.65531 2.18968 5.91335 2.50799 5.91335H3.58047L4.15622 16.149C4.216 17.2118 4.2459 17.7432 4.47184 18.1466C4.67074 18.5017 4.97325 18.7877 5.33896 18.9663C5.75441 19.1692 6.28666 19.1692 7.35117 19.1692H12.6479C13.7124 19.1692 14.2446 19.1692 14.6601 18.9663C15.0258 18.7877 15.3283 18.5017 15.5272 18.1466C15.7531 17.7432 15.783 17.2118 15.8428 16.149L16.4186 5.91335H17.493C17.8113 5.91335 18.0693 5.65531 18.0693 5.33701C18.0693 5.0187 17.8113 4.76066 17.493 4.76066H16.4834ZM12.2266 4.29502C12.253 4.42396 12.2768 4.57425 12.3027 4.76059H7.69524C7.72107 4.57425 7.74495 4.42396 7.77128 4.29502C7.81948 4.05897 7.86215 3.97079 7.89054 3.92534C7.99342 3.76062 8.14204 3.62941 8.31826 3.54776C8.36688 3.52523 8.45967 3.49383 8.69987 3.47528C8.95251 3.45577 9.28256 3.45508 9.79804 3.45508H10.1999C10.7153 3.45508 11.0454 3.45577 11.298 3.47528C11.5382 3.49383 11.631 3.52523 11.6796 3.54776C11.8559 3.62941 12.0045 3.76062 12.1074 3.92534C12.1358 3.97079 12.1784 4.05897 12.2266 4.29502ZM10.5 7.64228C10.5 7.36614 10.2761 7.14228 10 7.14228C9.72386 7.14228 9.5 7.36614 9.5 7.64228L9.5 16.2875C9.5 16.5636 9.72386 16.7875 10 16.7875C10.2761 16.7875 10.5 16.5636 10.5 16.2875V7.64228ZM7.61719 7.64233C7.61719 7.36619 7.39333 7.14233 7.11719 7.14233C6.84105 7.14233 6.61719 7.36619 6.61719 7.64233V16.2875C6.61719 16.5637 6.84104 16.7875 7.11719 16.7875C7.39333 16.7875 7.61719 16.5637 7.61719 16.2875L7.61719 7.64233ZM12.8809 7.14228C13.157 7.14228 13.3809 7.36614 13.3809 7.64228V16.2875C13.3809 16.5636 13.157 16.7875 12.8809 16.7875C12.6047 16.7875 12.3809 16.5636 12.3809 16.2875V7.64228C12.3809 7.36614 12.6047 7.14228 12.8809 7.14228Z" fill="#ABBED1"/>
</symbol>

<symbol id='moveFromBacklog' width="20" height="20" viewBox="0 0 20 20" fill="none">
<path fill-rule="evenodd" clip-rule="evenodd" d="M9.50009 4.87252L7.65383 6.59166C7.44939 6.78203 7.13439 6.78791 6.92298 6.60531C6.67294 6.38934 6.66977 6.00277 6.91622 5.78272L9.6634 3.32988C9.83446 3.17715 10.1118 3.17715 10.2829 3.32988L13.0974 5.84289C13.314 6.03629 13.3254 6.37135 13.1224 6.57901C12.9324 6.77341 12.6233 6.78437 12.4199 6.60391L10.5001 4.89979L10.5001 9.06262C10.5001 9.33876 10.2762 9.56262 10.0001 9.56262C9.72394 9.56262 9.50009 9.33876 9.50009 9.06262L9.50009 4.87252Z" fill="#ABBED1"/>
<path fill-rule="evenodd" clip-rule="evenodd" d="M7.7493 4.12646H7.00506C5.74732 4.12646 5.37208 4.47419 4.51737 5.59134L2.2312 8.58029C1.86986 9.06858 1.76562 9.4459 1.76562 10.2671V14.6544C1.76562 16.2376 2.55085 17.0662 4.0518 17.0662H15.9413C17.4492 17.0662 18.2344 16.2376 18.2344 14.6544V10.2671C18.2344 9.4459 18.1302 9.06858 17.7619 8.58029L15.4827 5.59134C14.628 4.47419 14.2458 4.12646 12.995 4.12646H12.199C12.6731 4.52326 13.139 4.91926 13.4356 5.17339C13.5625 5.2853 13.6933 5.42462 13.8014 5.58685C13.9278 5.67758 14.0448 5.79652 14.1554 5.94647L16.6709 9.29793C16.7821 9.4533 16.7404 9.66045 16.5111 9.66045H12.043C11.6816 9.66045 11.5149 9.93419 11.5149 10.2227V10.2523C11.5149 11.0513 10.9312 11.9022 10 11.9022C9.06193 11.9022 8.47822 11.0513 8.47822 10.2523V10.2227C8.47822 9.93419 8.3184 9.66045 7.95011 9.66045H3.48894C3.25963 9.66045 3.21099 9.4533 3.32912 9.29793L5.83766 5.94647C5.96727 5.77473 6.10405 5.64368 6.25294 5.54908C6.38812 5.34983 6.62355 5.06172 7.06937 4.69138C7.15287 4.62202 7.23815 4.55114 7.32426 4.47957C7.4651 4.3625 7.60816 4.24359 7.7493 4.12646ZM2.94197 14.6544C2.94197 15.3646 3.47902 15.8899 4.11831 15.8899H15.9413C16.5806 15.8899 17.0581 15.3646 17.0581 14.6544V10.9626H12.7031C12.4808 12.2795 11.4037 13.2635 10 13.2635C8.59635 13.2635 7.51928 12.2795 7.29692 10.9626H2.94197V14.6544Z" fill="#ABBED1"/>
</symbol>

<symbol id='bug' width="20" height="20" viewBox="0 0 20 20" fill="none">
<path fill-rule="evenodd" clip-rule="evenodd" d="M10 4.44764C10.7363 4.44764 11.4424 4.15515 11.9631 3.63452C12.4837 3.11388 12.7762 2.40774 12.7762 1.67145C12.7762 1.3648 13.0248 1.11621 13.3314 1.11621C13.6381 1.11621 13.8867 1.3648 13.8867 1.67145C13.8867 2.70226 13.4772 3.69085 12.7483 4.41974C12.584 4.58405 12.4065 4.73214 12.2183 4.86295C13.9922 5.55476 15.3632 7.05188 15.8821 8.90504C17.2766 9.05233 18.3633 10.2321 18.3633 11.6657C18.3633 11.9724 18.1147 12.221 17.808 12.221C17.5014 12.221 17.2528 11.9724 17.2528 11.6657C17.2528 10.9208 16.7638 10.29 16.0892 10.077C16.1014 10.2348 16.1076 10.3943 16.1076 10.5553V12.7762C16.1076 13.461 15.9949 14.1195 15.7871 14.7341C16.6973 15.1897 17.3222 16.131 17.3222 17.2181C17.3222 17.5248 17.0736 17.7734 16.767 17.7734C16.4603 17.7734 16.2117 17.5248 16.2117 17.2181C16.2117 16.5896 15.8636 16.0424 15.3497 15.7588C15.3631 15.7239 15.3761 15.6888 15.3888 15.6535C14.4427 17.4218 12.6517 18.67 10.5552 18.8589V18.8838H10H9.44476V18.8589C7.34832 18.67 5.55734 17.4218 4.61123 15.6535C4.62392 15.6888 4.63695 15.7239 4.65031 15.7588C4.13638 16.0424 3.78827 16.5896 3.78827 17.2181C3.78827 17.5248 3.53968 17.7734 3.23303 17.7734C2.92638 17.7734 2.67779 17.5248 2.67779 17.2181C2.67779 16.131 3.30271 15.1897 4.21294 14.7341C4.00508 14.1195 3.89238 13.461 3.89238 12.7762V10.5553C3.89238 10.3943 3.8986 10.2348 3.91082 10.077C3.23625 10.29 2.7472 10.9208 2.7472 11.6657C2.7472 11.9724 2.49861 12.221 2.19196 12.221C1.88531 12.221 1.63672 11.9724 1.63672 11.6657C1.63672 10.2321 2.72336 9.05233 4.11792 8.90504C4.63675 7.05188 6.00779 5.55476 7.78175 4.86295C7.59353 4.73213 7.41602 4.58405 7.25171 4.41974C6.52282 3.69085 6.11333 2.70226 6.11333 1.67145C6.11333 1.3648 6.36192 1.11621 6.66857 1.11621C6.97522 1.11621 7.22381 1.3648 7.22381 1.67145C7.22381 2.40774 7.5163 3.11388 8.03694 3.63451C8.55757 4.15515 9.26371 4.44764 10 4.44764ZM10.6123 17.7429C13.1108 17.4667 14.9971 15.3484 14.9971 12.7762V10.5553C14.9971 10.3676 15.0173 10.2593 14.9971 10.077L10.6123 10.077V17.7429ZM9.32929 10.077V17.6827C6.83074 17.4065 5.00285 15.3484 5.00285 12.7762V10.5553C5.00285 10.3676 4.9827 10.2593 5.00285 10.077H9.32929ZM9.44476 8.88955H10.5552L14.7128 8.88955C14.0268 6.94867 12.1758 5.55812 10 5.55812C7.82421 5.55812 5.9732 6.94867 5.2872 8.88955L9.44476 8.88955Z" fill="#ABBED1"/>
</symbol>

<symbol id='release' width="20" height="20" viewBox="0 0 20 20" fill="none">
<path d="M4.07134 14.6005C3.80051 14.9927 3.44578 15.2802 3.04881 15.4292C2.89522 15.4292 2.74792 15.5054 2.63932 15.6412C2.53071 15.7769 2.4697 15.9611 2.4697 16.153C2.4697 16.345 2.53071 16.5292 2.63932 16.6649C2.74792 16.8007 2.89522 16.8769 3.04881 16.8769C3.71552 16.7693 4.3306 16.3716 4.78614 15.7536C5.24179 16.3714 5.85682 16.7691 6.52347 16.8769C7.19018 16.7693 7.80527 16.3716 8.26081 15.7536C8.71646 16.3714 9.33148 16.7691 9.99814 16.8769C10.6651 16.7697 11.2805 16.3719 11.7361 15.7536C12.1914 16.3715 12.8063 16.7692 13.4728 16.8769C14.1396 16.7694 14.7547 16.3716 15.2101 15.7533C15.6657 16.3713 16.2808 16.7691 16.9475 16.8769C17.1011 16.8769 17.2484 16.8007 17.357 16.6649C17.4656 16.5292 17.5266 16.345 17.5266 16.153C17.5266 15.9611 17.4656 15.7769 17.357 15.6412C17.2484 15.5054 17.1011 15.4292 16.9475 15.4292C16.4317 15.2001 15.9814 14.786 15.6529 14.2387C15.5967 14.1619 15.5283 14.1005 15.4521 14.0585C15.3758 14.0165 15.2934 13.9948 15.2101 13.9948C15.1268 13.9948 15.0444 14.0165 14.9682 14.0585C14.8919 14.1005 14.8235 14.1619 14.7673 14.2387C14.4389 14.7861 13.9886 15.2002 13.4728 15.4292C12.957 15.2001 12.5067 14.786 12.1783 14.2387C12.1237 14.1584 12.0559 14.0938 11.9795 14.0495C11.903 14.0052 11.8197 13.9822 11.7355 13.9821C11.6511 13.9823 11.5673 14.0054 11.4908 14.0498C11.4144 14.0942 11.3465 14.1589 11.2921 14.2394C10.9664 14.7897 10.5154 15.2043 9.99814 15.4292C9.48233 15.2002 9.03202 14.7861 8.70359 14.2387C8.64919 14.1582 8.58139 14.0934 8.50492 14.049C8.42845 14.0045 8.34514 13.9815 8.26081 13.9814C8.17642 13.9814 8.09248 14.0045 8.01599 14.0491C7.9395 14.0937 7.87173 14.1586 7.81744 14.2394C7.49059 14.7258 6.84199 15.4292 6.52347 15.4292C6.02102 15.209 5.58127 14.8095 5.2587 14.28L3.33532 10.0996H13.7054C15.0332 10.0996 15.5651 10.6424 16.267 11.2999L17.1445 12.2131C17.2675 12.3283 17.5938 12.5842 17.9904 12.2441C17.9904 12.2441 18.4258 11.8577 17.874 11.23L16.7922 10.2184C15.9954 9.47248 15.0446 9.02684 14.0519 8.93399V6.74249C14.0519 6.5505 13.9909 6.36638 13.8823 6.23062C13.7737 6.09487 13.6264 6.0186 13.4728 6.0186H12.7647V3.84694C12.7647 3.65495 12.7037 3.47082 12.5951 3.33507C12.4865 3.19931 12.3392 3.12305 12.1856 3.12305H8.9686C8.81501 3.12305 8.66771 3.19931 8.5591 3.33507C8.4505 3.47082 8.38948 3.65495 8.38948 3.84694V6.0186H7.6817C7.52811 6.0186 7.38081 6.09487 7.2722 6.23062C7.1636 6.36638 7.10258 6.5505 7.10258 6.74249V8.91416H2.4697C2.36827 8.91416 2.26862 8.94747 2.18072 9.01075C2.09282 9.07403 2.01976 9.16505 1.96885 9.27471C1.91794 9.38437 1.89097 9.50883 1.89063 9.63561C1.89029 9.7624 1.91659 9.88708 1.96691 9.99717L4.07134 14.6005ZM9.40502 4.10363H11.7392V6.0186H9.40502V4.10363ZM8.26081 7.17252H12.8937V8.91416H8.26081V7.17252Z" fill="#ABBED1"/>
</symbol>

<symbol id='testTask' width="20" height="20" viewBox="0 0 20 20" fill="none">
<path fill-rule="evenodd" clip-rule="evenodd" d="M4.42578 3.14258H7.73608C8.28836 3.14258 8.73608 3.59029 8.73608 4.14258V7.45211C8.73608 8.00439 8.28836 8.45211 7.73608 8.45211H4.42578C3.8735 8.45211 3.42578 8.00439 3.42578 7.45211V4.14258C3.42578 3.59029 3.8735 3.14258 4.42578 3.14258ZM2.42578 4.14258C2.42578 3.03801 3.32121 2.14258 4.42578 2.14258H7.73608C8.84065 2.14258 9.73608 3.03801 9.73608 4.14258V7.45211C9.73608 8.55668 8.84065 9.45211 7.73608 9.45211H4.42578C3.32121 9.45211 2.42578 8.55668 2.42578 7.45211V4.14258ZM4.42578 11.5482H7.75876C8.31105 11.5482 8.75877 11.9959 8.75877 12.5482V15.8577C8.75877 16.41 8.31105 16.8577 7.75877 16.8577H4.42578C3.8735 16.8577 3.42578 16.41 3.42578 15.8577V12.5482C3.42578 11.9959 3.8735 11.5482 4.42578 11.5482ZM2.42578 12.5482C2.42578 11.4436 3.32121 10.5482 4.42578 10.5482H7.75876C8.86333 10.5482 9.75877 11.4436 9.75877 12.5482V15.8577C9.75877 16.9623 8.86334 17.8577 7.75877 17.8577H4.42578C3.32121 17.8577 2.42578 16.9623 2.42578 15.8577V12.5482ZM8.03269 4.41976C8.22169 4.62109 8.21168 4.93751 8.01035 5.12651L6.02112 6.99384C5.70102 7.29432 5.19857 7.28069 4.89524 6.9633L4.13267 6.16539C3.94188 5.96575 3.94905 5.64925 4.14868 5.45846C4.34832 5.26767 4.66482 5.27484 4.85561 5.47447L5.48122 6.12909L7.32594 4.39742C7.52727 4.20842 7.84369 4.21842 8.03269 4.41976ZM4.62569 12.8253C4.43669 13.0266 4.4467 13.343 4.64803 13.532L5.36275 14.203L4.64814 14.8738C4.44681 15.0628 4.43681 15.3792 4.62581 15.5805C4.8148 15.7819 5.13123 15.7919 5.33256 15.6029L6.0933 14.8887L6.85404 15.6029C7.05537 15.7919 7.3718 15.7819 7.56079 15.5805C7.74979 15.3792 7.73979 15.0628 7.53845 14.8738L6.82385 14.203L7.53857 13.532C7.7399 13.343 7.7499 13.0266 7.56091 12.8253C7.37191 12.6239 7.05549 12.6139 6.85415 12.8029L6.0933 13.5172L5.33244 12.8029C5.13111 12.6139 4.81469 12.6239 4.62569 12.8253ZM10.6258 3.71045C10.6258 3.40669 10.872 3.16045 11.1758 3.16045L17.5747 3.16045C17.8784 3.16045 18.1247 3.40669 18.1247 3.71045C18.1247 4.01421 17.8784 4.26045 17.5747 4.26045L11.1758 4.26045C10.872 4.26045 10.6258 4.01421 10.6258 3.71045ZM11.1758 11.566C10.872 11.566 10.6258 11.8122 10.6258 12.116C10.6258 12.4197 10.872 12.666 11.1758 12.666H17.5747C17.8784 12.666 18.1247 12.4197 18.1247 12.116C18.1247 11.8122 17.8784 11.566 17.5747 11.566L11.1758 11.566ZM10.6258 5.81372C10.6258 5.50996 10.872 5.26372 11.1758 5.26372L17.5747 5.26372C17.8784 5.26372 18.1247 5.50996 18.1247 5.81372C18.1247 6.11748 17.8784 6.36372 17.5747 6.36372L11.1758 6.36372C10.872 6.36372 10.6258 6.11748 10.6258 5.81372ZM11.1758 13.6692C10.872 13.6692 10.6258 13.9155 10.6258 14.2192C10.6258 14.523 10.872 14.7692 11.1758 14.7692H17.5747C17.8784 14.7692 18.1247 14.523 18.1247 14.2192C18.1247 13.9155 17.8784 13.6692 17.5747 13.6692L11.1758 13.6692ZM10.6258 7.88428C10.6258 7.58052 10.872 7.33428 11.1758 7.33428L13.3619 7.33428C13.6656 7.33428 13.9119 7.58052 13.9119 7.88428C13.9119 8.18803 13.6656 8.43428 13.3619 8.43428H11.1758C10.872 8.43428 10.6258 8.18803 10.6258 7.88428ZM11.1758 15.7398C10.872 15.7398 10.6258 15.986 10.6258 16.2898C10.6258 16.5936 10.872 16.8398 11.1758 16.8398H13.3619C13.6656 16.8398 13.9119 16.5936 13.9119 16.2898C13.9119 15.986 13.6656 15.7398 13.3619 15.7398H11.1758Z" fill="#ABBED1"/>
</symbol>

<symbol id='copyTask' width="20" height="20" viewBox="0 0 20 20" fill="none">
<path d="M16.6854 18.7345H7.40507C6.27615 18.7345 5.35794 17.8163 5.35794 16.6874V7.40703C5.35794 6.2781 6.27615 5.35989 7.40507 5.35989H16.6854C17.8143 5.35989 18.7325 6.2781 18.7325 7.40703V16.6874C18.7325 17.8163 17.8143 18.7345 16.6854 18.7345ZM7.40507 6.72465C7.02881 6.72465 6.72269 7.03076 6.72269 7.40703V16.6874C6.72269 17.0636 7.02881 17.3697 7.40507 17.3697H16.6854C17.0617 17.3697 17.3678 17.0636 17.3678 16.6874V7.40703C17.3678 7.03076 17.0617 6.72465 16.6854 6.72465H7.40507ZM3.99318 13.2755H3.31081C2.93454 13.2755 2.62843 12.9694 2.62843 12.5931V3.31276C2.62843 2.9365 2.93454 2.63038 3.31081 2.63038H12.5911C12.9674 2.63038 13.2735 2.9365 13.2735 3.31276V3.96102H14.6383V3.31276C14.6383 2.18383 13.7201 1.26562 12.5911 1.26562H3.31081C2.18188 1.26562 1.26367 2.18383 1.26367 3.31276V12.5931C1.26367 13.722 2.18188 14.6402 3.31081 14.6402H3.99318V13.2755Z" fill="#ABBED1"/>
</symbol>

<symbol id='refresh' width="20" height="20" viewBox="0 0 20 20" fill="none">
<path d="M3.53648 7.12338C4.18853 5.99399 4.88521 4.72829 6.62227 3.78515C7.76834 3.16288 9.06417 2.86966 10.3665 2.93792C11.6688 3.00617 12.9269 3.43323 14.0016 4.17188C15.0764 4.91054 15.9259 5.93201 16.4564 7.12338M2.24609 4.26767L2.89083 7.06043C3.00064 7.53609 3.47526 7.83267 3.95092 7.72286L6.74368 7.07812M16.5908 12.6129C15.9387 13.7423 15.032 15.3118 13.3706 16.2138C12.2245 16.8361 10.9287 17.1293 9.62636 17.0611C8.32404 16.9928 7.06596 16.5657 5.99121 15.8271C4.91646 15.0884 4.06691 14.067 3.53648 12.8756M17.7468 15.7313L17.102 12.9385C16.9922 12.4629 16.5176 12.1663 16.0419 12.2761L13.2492 12.9208" stroke="#ABBED1" stroke-width="1.1" stroke-linecap="round"/>
</symbol>

<symbol id='duplicate' width="20" height="21" viewBox="0 0 20 21" fill="none">
<path fill-rule="evenodd" clip-rule="evenodd" d="M7.41611 19.2046H16.6637C17.7886 19.2046 18.7036 18.2896 18.7036 17.1647V7.91709C18.7036 6.79215 17.7886 5.87718 16.6637 5.87718H7.41611C6.29117 5.87718 5.37621 6.79215 5.37621 7.91709V17.1647C5.37621 18.2896 6.29117 19.2046 7.41611 19.2046ZM6.73615 7.91709C6.73615 7.54216 7.04118 7.23712 7.41611 7.23712H16.6637C17.0386 7.23712 17.3437 7.54216 17.3437 7.91709V17.1647C17.3437 17.5396 17.0386 17.8447 16.6637 17.8447H7.41611C7.04118 17.8447 6.73615 17.5396 6.73615 17.1647V7.91709ZM3.3363 13.7648H4.01627V15.1248H3.3363C2.21135 15.1248 1.29639 14.2098 1.29639 13.0849V3.83727C1.29639 2.71233 2.21135 1.79736 3.3363 1.79736H12.5839C13.7088 1.79736 14.6238 2.71233 14.6238 3.83727V4.48324H13.2639V3.83727C13.2639 3.46234 12.9588 3.1573 12.5839 3.1573H3.3363C2.96136 3.1573 2.65633 3.46234 2.65633 3.83727V13.0849C2.65633 13.4598 2.96136 13.7648 3.3363 13.7648ZM12.5111 9.05734C12.5111 8.7812 12.2873 8.55734 12.0111 8.55734C11.735 8.55734 11.5111 8.7812 11.5111 9.05734V12.0388H8.5297C8.25356 12.0388 8.0297 12.2626 8.0297 12.5388C8.0297 12.8149 8.25356 13.0388 8.5297 13.0388H11.5111V16.0202C11.5111 16.2964 11.735 16.5202 12.0111 16.5202C12.2873 16.5202 12.5111 16.2964 12.5111 16.0202V13.0388H15.4926C15.7687 13.0388 15.9926 12.8149 15.9926 12.5388C15.9926 12.2626 15.7687 12.0388 15.4926 12.0388H12.5111V9.05734Z" fill="#ABBED1"/>
</symbol>

<symbol id='epic' width="20" height="20" viewBox="0 0 20 20" fill="none">
<path fill-rule="evenodd" clip-rule="evenodd" d="M1.875 2.5C1.875 2.15482 2.15482 1.875 2.5 1.875H6.66667C7.01185 1.875 7.29167 2.15482 7.29167 2.5V7.5C7.29167 7.84518 7.01185 8.125 6.66667 8.125H2.5C2.15482 8.125 1.875 7.84518 1.875 7.5C1.875 7.15482 2.15482 6.875 2.5 6.875H6.04167V3.125H2.5C2.15482 3.125 1.875 2.84518 1.875 2.5Z" fill="#ABBED1"/>
<path fill-rule="evenodd" clip-rule="evenodd" d="M6.04102 5C6.04102 4.65482 6.32084 4.375 6.66602 4.375H12.4993C12.8445 4.375 13.1243 4.65482 13.1243 5V15C13.1243 15.3452 12.8445 15.625 12.4993 15.625H6.66602C6.32084 15.625 6.04102 15.3452 6.04102 15C6.04102 14.6548 6.32084 14.375 6.66602 14.375H11.8743V5.625H6.66602C6.32084 5.625 6.04102 5.34518 6.04102 5Z" fill="#ABBED1"/>
<path fill-rule="evenodd" clip-rule="evenodd" d="M11.875 10C11.875 9.65482 12.1548 9.375 12.5 9.375H18.3333C18.6785 9.375 18.9583 9.65482 18.9583 10C18.9583 10.3452 18.6785 10.625 18.3333 10.625H12.5C12.1548 10.625 11.875 10.3452 11.875 10Z" fill="#ABBED1"/>
<path fill-rule="evenodd" clip-rule="evenodd" d="M1.875 12.5C1.875 12.1548 2.15482 11.875 2.5 11.875H6.66667C7.01185 11.875 7.29167 12.1548 7.29167 12.5V17.5C7.29167 17.8452 7.01185 18.125 6.66667 18.125H2.5C2.15482 18.125 1.875 17.8452 1.875 17.5C1.875 17.1548 2.15482 16.875 2.5 16.875H6.04167V13.125H2.5C2.15482 13.125 1.875 12.8452 1.875 12.5Z" fill="#ABBED1"/>
</symbol>

<symbol id='copyLink' width="20" height="20" viewBox="0 0 20 20" fill="none">
<path d="M9.36373 12.7274L10.4578 11.619C9.61402 11.5475 9.00618 11.2686 8.56997 10.8324C7.36146 9.62385 7.36146 7.91476 8.56282 6.72055L10.937 4.33927C12.1455 3.1379 13.8474 3.13075 15.0559 4.33927C16.2716 5.55494 16.2573 7.25687 15.0631 8.45824L13.8474 9.66676C14.0762 10.1959 14.1549 10.8395 14.0262 11.3973L16.0714 9.35927C17.8305 7.60727 17.8377 5.10443 16.0642 3.33098C14.2836 1.55038 11.7951 1.56468 10.0359 3.32383L7.54738 5.81237C5.78824 7.57152 5.78109 10.0672 7.55453 11.8407C7.96929 12.2626 8.54137 12.5772 9.36373 12.7274ZM10.0288 6.68479L8.93467 7.7932C9.77849 7.87186 10.3863 8.1436 10.8225 8.57981C12.0382 9.78832 12.0311 11.4974 10.8297 12.6988L8.45556 15.0729C7.24704 16.2814 5.5451 16.2814 4.34374 15.0729C3.12807 13.8572 3.13522 12.1625 4.33659 10.9611L5.5451 9.74542C5.31627 9.2234 5.24476 8.57981 5.36633 8.01488L3.32115 10.0601C1.562 11.8121 1.55485 14.3078 3.3283 16.0812C5.10889 17.8618 7.59744 17.8475 9.35658 16.0955L11.8451 13.5998C13.6043 11.8407 13.6114 9.34496 11.838 7.57152C11.4232 7.15676 10.8583 6.84212 10.0288 6.68479Z" fill="#ABBED1"/>
</symbol>

<symbol id='bigAlertsActive' width="20" height="20" viewBox="0 0 20 20" fill="none">
<path d="M3.3335 12.4041L4.0835 12.4041V12.4041H3.3335ZM5.61092 15.0694L5.50791 15.8123L5.50791 15.8123L5.61092 15.0694ZM14.0995 15.0694L13.9965 14.3265L13.9965 14.3265L14.0995 15.0694ZM3.58384 11.2525L2.90207 10.94L3.58384 11.2525ZM5.53278 6.73897C5.53278 4.35174 7.46801 2.4165 9.85524 2.4165V0.916504C6.63958 0.916504 4.03278 3.52331 4.03278 6.73897H5.53278ZM5.53278 8.18513V6.73897H4.03278V8.18513H5.53278ZM4.0835 12.4041C4.0835 12.1032 4.14892 11.8196 4.26561 11.5651L2.90207 10.94C2.69728 11.3867 2.5835 11.8831 2.5835 12.4041H4.0835ZM5.71393 14.3265C4.77892 14.1968 4.0835 13.3831 4.0835 12.4041L2.5835 12.4041C2.5835 14.0966 3.79674 15.575 5.50791 15.8123L5.71393 14.3265ZM9.85524 14.6848C8.62098 14.6848 7.02175 14.5078 5.71393 14.3265L5.50791 15.8123C6.82791 15.9953 8.51224 16.1848 9.85524 16.1848V14.6848ZM13.9965 14.3265C12.6887 14.5078 11.0895 14.6848 9.85524 14.6848V16.1848C11.1982 16.1848 12.8826 15.9953 14.2026 15.8123L13.9965 14.3265ZM15.627 12.4041C15.627 13.3831 14.9316 14.1968 13.9965 14.3265L14.2026 15.8123C15.9137 15.575 17.127 14.0966 17.127 12.4041H15.627ZM15.4449 11.5651C15.5615 11.8196 15.627 12.1032 15.627 12.4041H17.127C17.127 11.8831 17.0132 11.3867 16.8084 10.94L15.4449 11.5651ZM14.1777 6.73897V8.18516H15.6777V6.73897H14.1777ZM9.85524 2.4165C12.2425 2.4165 14.1777 4.35174 14.1777 6.73897H15.6777C15.6777 3.52331 13.0709 0.916504 9.85524 0.916504V2.4165ZM16.8084 10.94C16.6824 10.6652 16.5394 10.3976 16.4061 10.1502C16.2692 9.89617 16.1432 9.66447 16.0312 9.43143C15.8066 8.96427 15.6777 8.56843 15.6777 8.18516H14.1777C14.1777 8.90222 14.419 9.53994 14.6793 10.0813C14.8096 10.3526 14.9547 10.6189 15.0856 10.8618C15.2201 11.1114 15.3415 11.3397 15.4449 11.5651L16.8084 10.94ZM4.03278 8.18513C4.03278 8.56841 3.90389 8.96426 3.67932 9.43142C3.56729 9.66446 3.44128 9.89616 3.30438 10.1502C3.1711 10.3976 3.02804 10.6652 2.90207 10.94L4.26561 11.5651C4.36892 11.3397 4.49038 11.1114 4.62488 10.8618C4.75577 10.6189 4.90083 10.3525 5.03122 10.0813C5.29147 9.53993 5.53278 8.9022 5.53278 8.18513H4.03278Z" fill="#3787EB"/>
<path d="M11.667 17.3613C11.2775 17.9471 10.6115 18.3331 9.8554 18.3331C9.09925 18.3331 8.43327 17.9471 8.04381 17.3613" stroke="#3787EB" stroke-width="1.5" stroke-linecap="round"/>
</symbol>

<symbol id='bigAlerts' width="20" height="20" viewBox="0 0 20 20" fill="none">
<path d="M3.3335 12.4041L4.0835 12.4041V12.4041H3.3335ZM5.61092 15.0694L5.50791 15.8123L5.50791 15.8123L5.61092 15.0694ZM14.0995 15.0694L13.9965 14.3265L13.9965 14.3265L14.0995 15.0694ZM3.58384 11.2525L2.90207 10.94L3.58384 11.2525ZM5.53278 6.73897C5.53278 4.35174 7.46801 2.4165 9.85524 2.4165V0.916504C6.63958 0.916504 4.03278 3.52331 4.03278 6.73897H5.53278ZM5.53278 8.18513V6.73897H4.03278V8.18513H5.53278ZM4.0835 12.4041C4.0835 12.1032 4.14892 11.8196 4.26561 11.5651L2.90207 10.94C2.69728 11.3867 2.5835 11.8831 2.5835 12.4041H4.0835ZM5.71393 14.3265C4.77892 14.1968 4.0835 13.3831 4.0835 12.4041L2.5835 12.4041C2.5835 14.0966 3.79674 15.575 5.50791 15.8123L5.71393 14.3265ZM9.85524 14.6848C8.62098 14.6848 7.02175 14.5078 5.71393 14.3265L5.50791 15.8123C6.82791 15.9953 8.51224 16.1848 9.85524 16.1848V14.6848ZM13.9965 14.3265C12.6887 14.5078 11.0895 14.6848 9.85524 14.6848V16.1848C11.1982 16.1848 12.8826 15.9953 14.2026 15.8123L13.9965 14.3265ZM15.627 12.4041C15.627 13.3831 14.9316 14.1968 13.9965 14.3265L14.2026 15.8123C15.9137 15.575 17.127 14.0966 17.127 12.4041H15.627ZM15.4449 11.5651C15.5615 11.8196 15.627 12.1032 15.627 12.4041H17.127C17.127 11.8831 17.0132 11.3867 16.8084 10.94L15.4449 11.5651ZM14.1777 6.73897V8.18516H15.6777V6.73897H14.1777ZM9.85524 2.4165C12.2425 2.4165 14.1777 4.35174 14.1777 6.73897H15.6777C15.6777 3.52331 13.0709 0.916504 9.85524 0.916504V2.4165ZM16.8084 10.94C16.6824 10.6652 16.5394 10.3976 16.4061 10.1502C16.2692 9.89617 16.1432 9.66447 16.0312 9.43143C15.8066 8.96427 15.6777 8.56843 15.6777 8.18516H14.1777C14.1777 8.90222 14.419 9.53994 14.6793 10.0813C14.8096 10.3526 14.9547 10.6189 15.0856 10.8618C15.2201 11.1114 15.3415 11.3397 15.4449 11.5651L16.8084 10.94ZM4.03278 8.18513C4.03278 8.56841 3.90389 8.96426 3.67932 9.43142C3.56729 9.66446 3.44128 9.89616 3.30438 10.1502C3.1711 10.3976 3.02804 10.6652 2.90207 10.94L4.26561 11.5651C4.36892 11.3397 4.49038 11.1114 4.62488 10.8618C4.75577 10.6189 4.90083 10.3525 5.03122 10.0813C5.29147 9.53993 5.53278 8.9022 5.53278 8.18513H4.03278Z" fill="#ABBED1"/>
<path d="M11.667 17.3613C11.2775 17.9471 10.6115 18.3331 9.8554 18.3331C9.09925 18.3331 8.43327 17.9471 8.04381 17.3613" stroke="#ABBED1" stroke-width="1.5" stroke-linecap="round"/>
</symbol>

<symbol id='close' width="24" height="24" viewBox="0 0 24 24" fill="none">
<path d="M18 6L6 18" stroke="#ABBED1" stroke-linecap="round" stroke-linejoin="round"/>
<path d="M6 6L18 18" stroke="#ABBED1" stroke-linecap="round" stroke-linejoin="round"/>
</symbol>

<symbol id='upArrow' width="12" height="6" viewBox="0 0 12 6" fill="none">
<path fill-rule="evenodd" clip-rule="evenodd" d="M0.210883 5.81171C0.492061 6.06276 0.947939 6.06276 1.22912 5.81171L6 1.55199L10.7709 5.81171C11.0521 6.06276 11.5079 6.06276 11.7891 5.81171C12.0703 5.56066 12.0703 5.15362 11.7891 4.90257L6.50912 0.188289C6.22794 -0.0627624 5.77206 -0.0627624 5.49088 0.188289L0.210883 4.90257C-0.0702945 5.15363 -0.0702944 5.56066 0.210883 5.81171Z" fill="#ABBED1"/>
</symbol>

<symbol id='downArrow' width="16" height="16" viewBox="0 0 16 16" fill="none">
<path fill-rule="evenodd" clip-rule="evenodd" d="M2.21088 5.18829C2.49206 4.93724 2.94794 4.93724 3.22912 5.18829L8 9.44801L12.7709 5.18829C13.0521 4.93724 13.5079 4.93724 13.7891 5.18829C14.0703 5.43934 14.0703 5.84637 13.7891 6.09743L8.50912 10.8117C8.22794 11.0628 7.77206 11.0628 7.49088 10.8117L2.21088 6.09743C1.92971 5.84637 1.92971 5.43934 2.21088 5.18829Z" fill="#A6A6A6"/>
</symbol>

<symbol id='checkArrow' width="16" height="16" viewBox="0 0 16 16" fill="none">
<path d="M13.3327 4L5.99935 11.3333L2.66602 8" stroke="#ABBED1" stroke-width="1.1" stroke-linecap="round" stroke-linejoin="round"/>
</symbol>

<symbol id='lightArrow' width="17" height="16" viewBox="0 0 17 16" fill="none">
<path d="M12 12L15.2929 8.70711C15.6834 8.31658 15.6834 7.68342 15.2929 7.29289L12 4M15 8L1 8" stroke="#3787EB" stroke-linecap="round"/>
</symbol>

<symbol id='boldArrow' width="18" height="16" viewBox="0 0 18 16" fill="none">
<path d="M12.707 12L15.9999 8.70711C16.3905 8.31658 16.3905 7.68342 15.9999 7.29289L12.707 4M15.707 8L1.70703 8" stroke="#3787EB" stroke-width="1.5" stroke-linecap="round"/>
</symbol>

<symbol id='nextBtn' width="16" height="16" viewBox="0 0 16 16" fill="none">
<path fill-rule="evenodd" clip-rule="evenodd" d="M6 2H13C13.5523 2 14 2.44772 14 3V13C14 13.5523 13.5523 14 13 14H6L6 2ZM5 2H3C2.44772 2 2 2.44772 2 3V13C2 13.5523 2.44772 14 3 14H5L5 2ZM1 3C1 1.89543 1.89543 1 3 1H13C14.1046 1 15 1.89543 15 3V13C15 14.1046 14.1046 15 13 15H3C1.89543 15 1 14.1046 1 13V3Z" fill="#ABBED1"/>
<path d="M9 5.5L10.5002 7.3753C10.7924 7.74052 10.7924 8.25948 10.5002 8.6247L9 10.5" stroke="#ABBED1" stroke-linecap="round"/>
</symbol>

<symbol id='prevBtn' width="16" height="16" viewBox="0 0 16 16" fill="none">
<path fill-rule="evenodd" clip-rule="evenodd" d="M6 2H13C13.5523 2 14 2.44772 14 3V13C14 13.5523 13.5523 14 13 14H6L6 2ZM5 2H3C2.44772 2 2 2.44772 2 3V13C2 13.5523 2.44772 14 3 14H5L5 2ZM1 3C1 1.89543 1.89543 1 3 1H13C14.1046 1 15 1.89543 15 3V13C15 14.1046 14.1046 15 13 15H3C1.89543 15 1 14.1046 1 13V3Z" fill="#ABBED1"/>
<path d="M11 5.5L9.49976 7.3753C9.20758 7.74052 9.20758 8.25948 9.49976 8.6247L11 10.5" stroke="#ABBED1" stroke-linecap="round"/>
</symbol>

<symbol id='message' width="16" height="16" viewBox="0 0 16 16" fill="none">
<path d="M5.65219 14.8C5.98158 14.8 6.22429 14.6301 6.62302 14.2601L8.60515 12.4281H12.084C13.8234 12.4281 14.8 11.3725 14.8 9.57081V4.85725C14.8 3.05555 13.8234 2 12.084 2H4.71603C2.98239 2 2 3.05555 2 4.85725V9.57081C2 11.3786 3.01129 12.4281 4.67558 12.4281H4.91251V13.9143C4.91251 14.4542 5.18411 14.8 5.65219 14.8ZM5.94113 13.4411V11.7122C5.94113 11.3543 5.79088 11.2148 5.46727 11.2148H4.75648C3.67007 11.2148 3.14998 10.6385 3.14998 9.53441V4.89365C3.14998 3.78957 3.67007 3.21327 4.75648 3.21327H12.0493C13.1299 3.21327 13.65 3.78957 13.65 4.89365V9.53441C13.65 10.6385 13.1299 11.2148 12.0493 11.2148H8.54158C8.18907 11.2148 8.01571 11.2755 7.773 11.5424L5.94113 13.4411ZM5.61752 8.12095C6.09138 8.12095 6.47278 7.7145 6.47278 7.211C6.47278 6.71355 6.09138 6.30711 5.61752 6.30711C5.13788 6.30711 4.7507 6.71355 4.7507 7.211C4.7507 7.7145 5.13788 8.12095 5.61752 8.12095ZM8.40289 8.12095C8.87675 8.12095 9.26393 7.7145 9.26393 7.211C9.26393 6.71355 8.87675 6.30711 8.40289 6.30711C7.92903 6.30711 7.54185 6.71355 7.54185 7.211C7.54185 7.7145 7.92903 8.12095 8.40289 8.12095ZM11.194 8.12095C11.6679 8.12095 12.0551 7.7145 12.0551 7.211C12.0551 6.71355 11.6679 6.30711 11.194 6.30711C10.7202 6.30711 10.333 6.71355 10.333 7.211C10.333 7.7145 10.7202 8.12095 11.194 8.12095Z" fill="#D2D2D2"/>
</symbol>

<symbol id='messageActive' width="16" height="16" viewBox="0 0 16 16" fill="none">
<path d="M5.2518 14.4001C5.58119 14.4001 5.8239 14.2302 6.22263 13.8602L8.20476 12.0282H11.6836C13.423 12.0282 14.3996 10.9726 14.3996 9.1709V4.45735C14.3996 2.65564 13.423 1.6001 11.6836 1.6001H4.31564C2.582 1.6001 1.59961 2.65564 1.59961 4.45735V9.1709C1.59961 10.9787 2.6109 12.0282 4.27519 12.0282H4.51212V13.5144C4.51212 14.0543 4.78372 14.4001 5.2518 14.4001ZM5.54074 13.0412V11.3123C5.54074 10.9544 5.39049 10.8149 5.06688 10.8149H4.35609C3.26968 10.8149 2.74959 10.2386 2.74959 9.13451V4.49375C2.74959 3.38967 3.26968 2.81337 4.35609 2.81337H11.6489C12.7295 2.81337 13.2496 3.38967 13.2496 4.49375V9.13451C13.2496 10.2386 12.7295 10.8149 11.6489 10.8149H8.14119C7.78868 10.8149 7.61532 10.8755 7.37261 11.1425L5.54074 13.0412ZM5.21713 7.72105C5.69099 7.72105 6.07239 7.3146 6.07239 6.81109C6.07239 6.31365 5.69099 5.90721 5.21713 5.90721C4.73749 5.90721 4.35031 6.31365 4.35031 6.81109C4.35031 7.3146 4.73749 7.72105 5.21713 7.72105ZM8.0025 7.72105C8.47636 7.72105 8.86354 7.3146 8.86354 6.81109C8.86354 6.31365 8.47636 5.90721 8.0025 5.90721C7.52864 5.90721 7.14146 6.31365 7.14146 6.81109C7.14146 7.3146 7.52864 7.72105 8.0025 7.72105ZM10.7936 7.72105C11.2675 7.72105 11.6547 7.3146 11.6547 6.81109C11.6547 6.31365 11.2675 5.90721 10.7936 5.90721C10.3198 5.90721 9.93261 6.31365 9.93261 6.81109C9.93261 7.3146 10.3198 7.72105 10.7936 7.72105Z" fill="#3787EB"/>
<path d="M16 3C16 4.65685 14.6569 6 13 6C11.3431 6 10 4.65685 10 3C10 1.34315 11.3431 0 13 0C14.6569 0 16 1.34315 16 3Z" fill="#3787EB"/>
</symbol>

<symbol id='scraper'  fill="none">
<path d="M17.1744 11.8157L11.4841 17.5607C10.0442 19.0222 8.10381 18.8823 6.86411 17.6229C5.60901 16.3635 5.47041 14.42 6.92571 12.9507L14.7027 5.09901C15.5497 4.24387 16.8125 4.09616 17.6364 4.92798C18.4603 5.76757 18.3063 7.03473 17.4593 7.88209L9.82861 15.6017C9.48981 15.9515 9.08941 15.8504 8.84301 15.6172C8.61971 15.3762 8.52731 14.972 8.86611 14.6221L14.1868 9.25031C14.4563 8.97045 14.4717 8.5662 14.2099 8.30189C13.9481 8.05312 13.5477 8.06089 13.2782 8.33298L7.93441 13.7281C7.10281 14.5677 7.13361 15.8504 7.87281 16.5967C8.67361 17.4052 9.88251 17.3819 10.7141 16.5423L18.3833 8.79165C19.8771 7.29127 19.8232 5.3089 18.5142 3.98733C17.2283 2.69685 15.234 2.60356 13.7402 4.11171L5.91701 12.0178C3.96892 13.9924 4.09981 16.8222 5.87851 18.618C7.64951 20.3982 10.46 20.5381 12.4081 18.5713L18.1369 12.7952C18.3987 12.5309 18.3987 12.0489 18.1292 11.8002C17.8751 11.5203 17.4439 11.5592 17.1744 11.8157Z" fill="#ABBED1"/>

</symbol>

<symbol id='alertsActive' width="24" height="24" viewBox="0 0 24 24" fill="none">
<rect width="24" height="24" rx="6" fill="white"/>
<path d="M5.3335 14.4041L6.0835 14.4041V14.4041H5.3335ZM7.61092 17.0694L7.50791 17.8123L7.50791 17.8123L7.61092 17.0694ZM16.0995 17.0694L15.9965 16.3265L15.9965 16.3265L16.0995 17.0694ZM5.58384 13.2525L4.90207 12.94L5.58384 13.2525ZM7.53278 8.73897C7.53278 6.35174 9.46801 4.4165 11.8552 4.4165V2.9165C8.63958 2.9165 6.03278 5.52331 6.03278 8.73897H7.53278ZM7.53278 10.1851V8.73897H6.03278V10.1851H7.53278ZM6.0835 14.4041C6.0835 14.1032 6.14892 13.8196 6.26561 13.5651L4.90207 12.94C4.69728 13.3867 4.5835 13.8831 4.5835 14.4041H6.0835ZM7.71393 16.3265C6.77892 16.1968 6.0835 15.3831 6.0835 14.4041L4.5835 14.4041C4.5835 16.0966 5.79674 17.575 7.50791 17.8123L7.71393 16.3265ZM11.8552 16.6848C10.621 16.6848 9.02175 16.5078 7.71393 16.3265L7.50791 17.8123C8.82791 17.9953 10.5122 18.1848 11.8552 18.1848V16.6848ZM15.9965 16.3265C14.6887 16.5078 13.0895 16.6848 11.8552 16.6848V18.1848C13.1982 18.1848 14.8826 17.9953 16.2026 17.8123L15.9965 16.3265ZM17.627 14.4041C17.627 15.3831 16.9316 16.1968 15.9965 16.3265L16.2026 17.8123C17.9137 17.575 19.127 16.0966 19.127 14.4041H17.627ZM17.4449 13.5651C17.5615 13.8196 17.627 14.1032 17.627 14.4041H19.127C19.127 13.8831 19.0132 13.3867 18.8084 12.94L17.4449 13.5651ZM16.1777 8.73897V10.1852H17.6777V8.73897H16.1777ZM11.8552 4.4165C14.2425 4.4165 16.1777 6.35174 16.1777 8.73897H17.6777C17.6777 5.52331 15.0709 2.9165 11.8552 2.9165V4.4165ZM18.8084 12.94C18.6824 12.6652 18.5394 12.3976 18.4061 12.1502C18.2692 11.8962 18.1432 11.6645 18.0312 11.4314C17.8066 10.9643 17.6777 10.5684 17.6777 10.1852H16.1777C16.1777 10.9022 16.419 11.5399 16.6793 12.0813C16.8096 12.3526 16.9547 12.6189 17.0856 12.8618C17.2201 13.1114 17.3415 13.3397 17.4449 13.5651L18.8084 12.94ZM6.03278 10.1851C6.03278 10.5684 5.90389 10.9643 5.67932 11.4314C5.56729 11.6645 5.44128 11.8962 5.30438 12.1502C5.1711 12.3976 5.02804 12.6652 4.90207 12.94L6.26561 13.5651C6.36892 13.3397 6.49038 13.1114 6.62488 12.8618C6.75577 12.6189 6.90083 12.3525 7.03122 12.0813C7.29147 11.5399 7.53278 10.9022 7.53278 10.1851H6.03278Z" fill="#ABBED1"/>
<path d="M13.667 19.3613C13.2775 19.9471 12.6115 20.3331 11.8554 20.3331C11.0993 20.3331 10.4333 19.9471 10.0438 19.3613" stroke="#ABBED1" stroke-width="1.5" stroke-linecap="round"/>
<circle cx="17" cy="5" r="3" fill="#3787EB"/>
</symbol>

<symbol id='alerts' width="24" height="24" viewBox="0 0 24 24" fill="none">
<rect width="24" height="24" rx="6" fill="white"/>
<path d="M5.3335 14.4041L6.0835 14.4041V14.4041H5.3335ZM7.61092 17.0694L7.50791 17.8123L7.50791 17.8123L7.61092 17.0694ZM16.0995 17.0694L15.9965 16.3265L15.9965 16.3265L16.0995 17.0694ZM5.58384 13.2525L4.90207 12.94L5.58384 13.2525ZM7.53278 8.73897C7.53278 6.35174 9.46801 4.4165 11.8552 4.4165V2.9165C8.63958 2.9165 6.03278 5.52331 6.03278 8.73897H7.53278ZM7.53278 10.1851V8.73897H6.03278V10.1851H7.53278ZM6.0835 14.4041C6.0835 14.1032 6.14892 13.8196 6.26561 13.5651L4.90207 12.94C4.69728 13.3867 4.5835 13.8831 4.5835 14.4041H6.0835ZM7.71393 16.3265C6.77892 16.1968 6.0835 15.3831 6.0835 14.4041L4.5835 14.4041C4.5835 16.0966 5.79674 17.575 7.50791 17.8123L7.71393 16.3265ZM11.8552 16.6848C10.621 16.6848 9.02175 16.5078 7.71393 16.3265L7.50791 17.8123C8.82791 17.9953 10.5122 18.1848 11.8552 18.1848V16.6848ZM15.9965 16.3265C14.6887 16.5078 13.0895 16.6848 11.8552 16.6848V18.1848C13.1982 18.1848 14.8826 17.9953 16.2026 17.8123L15.9965 16.3265ZM17.627 14.4041C17.627 15.3831 16.9316 16.1968 15.9965 16.3265L16.2026 17.8123C17.9137 17.575 19.127 16.0966 19.127 14.4041H17.627ZM17.4449 13.5651C17.5615 13.8196 17.627 14.1032 17.627 14.4041H19.127C19.127 13.8831 19.0132 13.3867 18.8084 12.94L17.4449 13.5651ZM16.1777 8.73897V10.1852H17.6777V8.73897H16.1777ZM11.8552 4.4165C14.2425 4.4165 16.1777 6.35174 16.1777 8.73897H17.6777C17.6777 5.52331 15.0709 2.9165 11.8552 2.9165V4.4165ZM18.8084 12.94C18.6824 12.6652 18.5394 12.3976 18.4061 12.1502C18.2692 11.8962 18.1432 11.6645 18.0312 11.4314C17.8066 10.9643 17.6777 10.5684 17.6777 10.1852H16.1777C16.1777 10.9022 16.419 11.5399 16.6793 12.0813C16.8096 12.3526 16.9547 12.6189 17.0856 12.8618C17.2201 13.1114 17.3415 13.3397 17.4449 13.5651L18.8084 12.94ZM6.03278 10.1851C6.03278 10.5684 5.90389 10.9643 5.67932 11.4314C5.56729 11.6645 5.44128 11.8962 5.30438 12.1502C5.1711 12.3976 5.02804 12.6652 4.90207 12.94L6.26561 13.5651C6.36892 13.3397 6.49038 13.1114 6.62488 12.8618C6.75577 12.6189 6.90083 12.3525 7.03122 12.0813C7.29147 11.5399 7.53278 10.9022 7.53278 10.1851H6.03278Z" fill="#ABBED1"/>
<path d="M13.667 19.3613C13.2775 19.9471 12.6115 20.3331 11.8554 20.3331C11.0993 20.3331 10.4333 19.9471 10.0438 19.3613" stroke="#ABBED1" stroke-width="1.5" stroke-linecap="round"/>
</symbol>

<symbol id='bugHelp' width="20" height="20" viewBox="0 0 20 20" fill="none">
<path fill-rule="evenodd" clip-rule="evenodd" d="M10.0412 4.07919C10.8263 4.07919 11.5792 3.76731 12.1344 3.21215C12.6895 2.65699 13.0014 1.90403 13.0014 1.11891C13.0014 0.791929 13.2665 0.526855 13.5935 0.526855C13.9205 0.526855 14.1855 0.791929 14.1855 1.11891C14.1855 2.21807 13.7489 3.27222 12.9717 4.04944C12.8384 4.1827 12.697 4.30594 12.5487 4.41869C14.5353 5.11852 16.0428 6.83457 16.447 8.9427C17.8179 9.15813 18.8664 10.3446 18.8664 11.776C18.8664 12.0522 18.6426 12.276 18.3664 12.276C18.0903 12.276 17.8664 12.0522 17.8664 11.776C17.8664 10.9377 17.3143 10.2284 16.5539 9.99183C16.5543 10.021 16.5545 10.0501 16.5545 10.0793V13.4728C16.5545 14.0732 16.4663 14.653 16.3022 15.2C17.1712 15.6928 17.7575 16.6262 17.7575 17.6966C17.7575 17.9728 17.5337 18.1966 17.2575 18.1966C16.9814 18.1966 16.7575 17.9728 16.7575 17.6966C16.7575 17.0495 16.4285 16.4792 15.9286 16.1439C14.946 18.1171 12.9086 19.4728 10.5545 19.4728H9.5293C7.17523 19.4728 5.13781 18.1171 4.15517 16.1439C3.65523 16.4791 3.32617 17.0494 3.32617 17.6966C3.32617 17.9728 3.10231 18.1966 2.82617 18.1966C2.55003 18.1966 2.32617 17.9728 2.32617 17.6966C2.32617 16.6262 2.91254 15.6927 3.78159 15.1999C3.61748 14.653 3.5293 14.0732 3.5293 13.4728V10.0793C3.5293 10.0499 3.52951 10.0204 3.52993 9.99103C2.76819 10.2268 2.21484 10.9368 2.21484 11.776C2.21484 12.0522 1.99099 12.276 1.71484 12.276C1.4387 12.276 1.21484 12.0522 1.21484 11.776C1.21484 10.3437 2.26472 9.15661 3.63689 8.94229C4.04118 6.83471 5.54814 5.11908 7.53412 4.41905C7.38558 4.30621 7.24402 4.18284 7.11062 4.04944C6.3334 3.27222 5.89676 2.21807 5.89676 1.11891C5.89676 0.791928 6.16183 0.526855 6.48882 0.526855C6.8158 0.526855 7.08087 0.791928 7.08087 1.11891C7.08087 1.90403 7.39276 2.65699 7.94792 3.21215C8.50308 3.76731 9.25604 4.07919 10.0412 4.07919ZM10.0412 5.26331C9.6652 5.26331 9.29451 5.21222 8.93836 5.1139C6.45545 5.40625 4.5293 7.51786 4.5293 10.0793V13.4728C4.5293 16.2342 6.76787 18.4728 9.5293 18.4728H10.5545C13.316 18.4728 15.5545 16.2342 15.5545 13.4728V10.0793C15.5545 7.51749 13.6278 5.40564 11.1444 5.11377C10.7881 5.21218 10.4173 5.26331 10.0412 5.26331Z" fill="#ABBED1"/>
<path d="M9.79806 12.6993C9.49684 12.6993 9.25015 12.4529 9.27739 12.1529C9.30038 11.8997 9.33809 11.6756 9.39053 11.5108C9.48108 11.2341 9.60936 11.0102 9.77537 10.8392C9.94138 10.6682 10.1414 10.5122 10.3753 10.3714C10.5262 10.2758 10.662 10.1689 10.7828 10.0506C10.9035 9.93243 10.9991 9.7966 11.0695 9.64317C11.1399 9.48973 11.1751 9.31995 11.1751 9.13382C11.1751 8.90995 11.1223 8.71627 11.0167 8.55278C10.911 8.38928 10.7702 8.26352 10.5941 8.17548C10.4205 8.08493 10.2269 8.03966 10.0131 8.03966C9.81939 8.03966 9.63451 8.0799 9.45844 8.16039C9.28237 8.24088 9.13648 8.36665 9.02078 8.53769C8.99347 8.57746 8.96889 8.61997 8.94705 8.66522C8.8141 8.94056 8.58313 9.19041 8.27736 9.19041C7.9479 9.19041 7.67416 8.91205 7.76386 8.59504C7.82142 8.39162 7.90585 8.20775 8.01717 8.04343C8.22845 7.72901 8.50765 7.49132 8.85477 7.33034C9.2044 7.16936 9.5905 7.08887 10.0131 7.08887C10.4759 7.08887 10.8809 7.17565 11.228 7.3492C11.5751 7.52024 11.8442 7.76046 12.0354 8.06984C12.2291 8.37671 12.3259 8.73514 12.3259 9.14514C12.3259 9.42685 12.2819 9.6809 12.1938 9.90728C12.1058 10.1311 11.98 10.3311 11.8165 10.5072C11.6556 10.6832 11.4619 10.8392 11.2355 10.975C11.0217 11.1083 10.8482 11.2467 10.7148 11.3901C10.584 11.5334 10.4885 11.7032 10.4281 11.8994C10.4049 11.9746 10.3859 12.0673 10.3708 12.1692C10.3278 12.4613 10.0933 12.6993 9.79806 12.6993ZM9.82065 14.9932C9.61439 14.9932 9.43706 14.9203 9.28866 14.7744C9.14026 14.626 9.06605 14.4474 9.06605 14.2386C9.06605 14.0324 9.14026 13.8563 9.28866 13.7104C9.43706 13.562 9.61439 13.4878 9.82065 13.4878C10.0244 13.4878 10.2005 13.562 10.3489 13.7104C10.4998 13.8563 10.5752 14.0324 10.5752 14.2386C10.5752 14.377 10.54 14.504 10.4696 14.6197C10.4017 14.7329 10.3111 14.8235 10.1979 14.8914C10.0848 14.9593 9.95899 14.9932 9.82065 14.9932Z" fill="#ABBED1"/>
</symbol>

<symbol id='menu' width="16" height="16" viewBox="0 0 16 16" fill="none">
<path fill-rule="evenodd" clip-rule="evenodd" d="M3.80078 7.8999C3.80078 8.72833 3.12921 9.3999 2.30078 9.3999C1.47235 9.3999 0.800781 8.72833 0.800781 7.8999C0.800781 7.07148 1.47235 6.3999 2.30078 6.3999C3.12921 6.3999 3.80078 7.07148 3.80078 7.8999ZM9.40039 7.8999C9.40039 8.72833 8.72882 9.3999 7.90039 9.3999C7.07196 9.3999 6.40039 8.72833 6.40039 7.8999C6.40039 7.07148 7.07196 6.3999 7.90039 6.3999C8.72882 6.3999 9.40039 7.07148 9.40039 7.8999ZM13.5 9.3999C14.3284 9.3999 15 8.72833 15 7.8999C15 7.07148 14.3284 6.3999 13.5 6.3999C12.6716 6.3999 12 7.07148 12 7.8999C12 8.72833 12.6716 9.3999 13.5 9.3999Z" fill="#ABBED1"/>
</symbol>

<symbol id='favorite' width="20" height="20" viewBox="0 0 20 20" fill="none">
<path fill-rule="evenodd" clip-rule="evenodd" d="M11.5331 6.98354L9.99974 2.24707L8.46639 6.98354C8.26606 7.60236 7.68974 8.02155 7.03931 8.02155L2.06833 8.02155L6.09466 10.9576C6.61846 11.3395 6.83762 12.0148 6.63795 12.6316L5.10174 17.3769L9.11595 14.4497C9.64257 14.0656 10.3569 14.0656 10.8835 14.4497L14.8977 17.3769L13.3615 12.6316C13.1619 12.0148 13.381 11.3395 13.9048 10.9576L17.9312 8.02155H12.9602C12.3097 8.02155 11.7334 7.60236 11.5331 6.98354ZM10.9511 1.93908C10.6524 1.0164 9.34705 1.0164 9.04835 1.93908L7.515 6.67555C7.44823 6.88182 7.25612 7.02155 7.03931 7.02155H2.06832C1.10049 7.02155 0.697129 8.2593 1.47913 8.82954L5.50546 11.7656C5.68006 11.8929 5.75312 12.118 5.68656 12.3236L4.15036 17.0689C3.85189 17.9908 4.90794 18.7558 5.69094 18.1848L9.70514 15.2577C9.88068 15.1297 10.1188 15.1297 10.2943 15.2577L14.3085 18.1848C15.0915 18.7558 16.1476 17.9908 15.8491 17.0689L14.3129 12.3236C14.2464 12.118 14.3194 11.8929 14.494 11.7656L18.5203 8.82954C19.3024 8.2593 18.899 7.02155 17.9312 7.02155H12.9602C12.7434 7.02155 12.5513 6.88182 12.4845 6.67555L10.9511 1.93908Z" fill="#ABBED1"/>
</symbol>
<symbol id='favoriteActive' width="18" height="18" viewBox="0 0 18 18" fill="none" >
<path d="M8.04835 0.939075C8.34705 0.0164019 9.65243 0.0164019 9.95113 0.939075L11.4845 5.67555C11.5513 5.88182 11.7434 6.02155 11.9602 6.02155H16.9312C17.899 6.02155 18.3024 7.2593 17.5203 7.82954L13.494 10.7656C13.3194 10.8929 13.2464 11.118 13.3129 11.3236L14.8491 16.0689C15.1476 16.9908 14.0915 17.7558 13.3085 17.1848L9.29434 14.2577C9.1188 14.1297 8.88068 14.1297 8.70514 14.2577L4.69094 17.1848C3.90794 17.7558 2.85189 16.9908 3.15036 16.0689L4.68656 11.3236C4.75312 11.118 4.68006 10.8929 4.50546 10.7656L0.479132 7.82954C-0.302871 7.2593 0.100489 6.02155 1.06833 6.02155H6.03931C6.25612 6.02155 6.44823 5.88182 6.515 5.67555L8.04835 0.939075Z" fill="#3787EB"/>
</symbol>
<symbol id='cancelTask' width="12" height="12" viewBox="0 0 12 12" fill="none">
<g clip-path="url(#clip0_0_7875)">
<path d="M12 2.11364V9.88636C11.9994 10.4467 11.7765 10.984 11.3802 11.3802C10.984 11.7765 10.4467 11.9994 9.88636 12H2.11366C1.55328 11.9994 1.01604 11.7765 0.619785 11.3802C0.223534 10.984 0.000638943 10.4467 0 9.88636L0 2.11364C0.000638943 1.55326 0.223534 1.01602 0.619785 0.619768C1.01604 0.223522 1.55328 0.000632729 2.11366 0L9.88636 0C10.4467 0.000632741 10.984 0.223522 11.3802 0.61977C11.7765 1.01602 11.9994 1.55326 12 2.11364ZM11.25 2.11364C11.2496 1.75211 11.1058 1.4055 10.8501 1.14985C10.5945 0.89421 10.2479 0.750409 9.88636 0.75H2.11366C1.75213 0.750403 1.40551 0.894201 1.14986 1.14985C0.894213 1.40549 0.750409 1.7521 0.75 2.11364V9.88636C0.750409 10.2479 0.894213 10.5945 1.14986 10.8502C1.40551 11.1058 1.75213 11.2496 2.11366 11.25H9.88636C10.2479 11.2496 10.5945 11.1058 10.8501 10.8501C11.1058 10.5945 11.2496 10.2479 11.25 9.88636V2.11364Z" fill="white"/>
<path d="M7.94678 8.3218C8.04623 8.3218 8.14161 8.28229 8.21194 8.21196C8.28227 8.14163 8.32178 8.04625 8.32178 7.9468C8.32178 7.84734 8.28227 7.75196 8.21194 7.68163L6.53033 6.00002L8.21192 4.31843C8.28225 4.2481 8.32176 4.15272 8.32176 4.05326C8.32176 3.95381 8.28225 3.85842 8.21192 3.7881C8.1416 3.71777 8.04622 3.67826 7.94676 3.67826C7.8473 3.67826 7.75192 3.71777 7.68159 3.7881L6 5.46969L4.31841 3.7881C4.24808 3.71777 4.1527 3.67826 4.05324 3.67826C3.95378 3.67826 3.8584 3.71777 3.78808 3.7881C3.71775 3.85842 3.67824 3.95381 3.67824 4.05326C3.67824 4.15272 3.71775 4.2481 3.78808 4.31843L5.46967 6.00002L3.78808 7.68161C3.71775 7.75194 3.67824 7.84732 3.67824 7.94678C3.67824 8.04623 3.71775 8.14162 3.78808 8.21194C3.8584 8.28227 3.95379 8.32178 4.05324 8.32178C4.1527 8.32178 4.24808 8.28227 4.31841 8.21194L6 6.53035L7.68161 8.21196C7.75194 8.28229 7.84732 8.3218 7.94678 8.3218Z" fill="white"/>
</g>
<defs>
<clipPath id="clip0_0_7875">
<rect width="12" height="12" fill="white"/>
</clipPath>
</defs>
</symbol>

<symbol id='addTask' width="12" height="12" viewBox="0 0 12 12" fill="none">
<g clip-path="url(#clip0_0_7873)">
<path d="M9.12816 6C9.12816 6.09946 9.08865 6.19484 9.01832 6.26517C8.948 6.33549 8.85261 6.375 8.75316 6.375H6.375V8.75313C6.375 8.85259 6.33549 8.94797 6.26517 9.0183C6.19484 9.08862 6.09946 9.12813 6 9.12813C5.90054 9.12813 5.80516 9.08862 5.73484 9.0183C5.66451 8.94797 5.625 8.85259 5.625 8.75313V6.375H3.24687C3.14741 6.375 3.05203 6.33549 2.9817 6.26517C2.91138 6.19484 2.87187 6.09946 2.87187 6C2.87187 5.90054 2.91138 5.80516 2.9817 5.73484C3.05203 5.66451 3.14741 5.625 3.24687 5.625H5.625V3.24687C5.625 3.14741 5.66451 3.05203 5.73484 2.9817C5.80516 2.91138 5.90054 2.87187 6 2.87187C6.09946 2.87187 6.19484 2.91138 6.26517 2.9817C6.33549 3.05203 6.375 3.14741 6.375 3.24687V5.625H8.75316C8.85261 5.625 8.948 5.66451 9.01832 5.73484C9.08865 5.80516 9.12816 5.90054 9.12816 6ZM12 2.11364V9.88636C11.9994 10.4467 11.7765 10.984 11.3802 11.3802C10.984 11.7765 10.4467 11.9994 9.88636 12H2.11366C1.55328 11.9994 1.01604 11.7765 0.619785 11.3802C0.223534 10.984 0.000638943 10.4467 0 9.88636L0 2.11364C0.000638943 1.55326 0.223534 1.01602 0.619785 0.619768C1.01604 0.223522 1.55328 0.000632729 2.11366 0L9.88636 0C10.4467 0.000632741 10.984 0.223522 11.3802 0.61977C11.7765 1.01602 11.9994 1.55326 12 2.11364ZM11.25 2.11364C11.2496 1.75211 11.1058 1.4055 10.8501 1.14985C10.5945 0.89421 10.2479 0.750409 9.88636 0.75H2.11366C1.75213 0.750403 1.40551 0.894201 1.14986 1.14985C0.894213 1.40549 0.750409 1.7521 0.75 2.11364V9.88636C0.750409 10.2479 0.894213 10.5945 1.14986 10.8502C1.40551 11.1058 1.75213 11.2496 2.11366 11.25H9.88636C10.2479 11.2496 10.5945 11.1058 10.8501 10.8501C11.1058 10.5945 11.2496 10.2479 11.25 9.88636V2.11364Z" fill="white"/>
</g>
<defs>
<clipPath id="clip0_0_7873">
<rect width="12" height="12" fill="white"/>
</clipPath>
</defs>
</symbol>

<symbol id='search' width="25" height="24" viewBox="0 0 25 24" fill="none" >
<circle cx="11.5" cy="11" r="8" stroke="white" stroke-width="1.5" stroke-linecap="round" stroke-linejoin="round"/>
<path d="M17 16.958L22 21.958" stroke="white" stroke-width="1.5" stroke-linecap="round" stroke-linejoin="round"/>
</symbol>
<symbol id='plus' width="16" height="16" viewBox="0 0 16 16" fill="none" >
<path d="M8 3.3335L8 12.6668" stroke="white" stroke-width="1.5" stroke-linecap="round" stroke-linejoin="round"/>
<path d="M12.6665 8L3.33317 8" stroke="white" stroke-width="1.5" stroke-linecap="round" stroke-linejoin="round"/>
</symbol>

<symbol id='loading' width="22" height="22" viewBox="0 0 22 22" fill="none" xmlns="http://www.w3.org/2000/svg">
<path d="M11 1L11 4" stroke="white" stroke-width="1.5" stroke-linecap="round" stroke-linejoin="round"/>
<path d="M11 18L11 21" stroke="white" stroke-width="1.5" stroke-linecap="round" stroke-linejoin="round"/>
<path d="M21 11L18 11" stroke="white" stroke-width="1.5" stroke-linecap="round" stroke-linejoin="round"/>
<path d="M4 11L1 11" stroke="white" stroke-width="1.5" stroke-linecap="round" stroke-linejoin="round"/>
<path d="M18.0715 3.92897L15.9502 6.05029" stroke="white" stroke-width="1.5" stroke-linecap="round" stroke-linejoin="round"/>
<path d="M6.05003 15.95L3.92871 18.0713" stroke="white" stroke-width="1.5" stroke-linecap="round" stroke-linejoin="round"/>
<path d="M3.92848 3.92897L6.0498 6.05029" stroke="white" stroke-width="1.5" stroke-linecap="round" stroke-linejoin="round"/>
<path d="M15.95 15.95L18.0713 18.0713" stroke="white" stroke-width="1.5" stroke-linecap="round" stroke-linejoin="round"/>
</symbol>
<symbol id='sidebarClose' width="16" height="16" viewBox="0 0 16 16" fill="none" xmlns="http://www.w3.org/2000/svg">
<path fill-rule="evenodd" clip-rule="evenodd" d="M6 2H13C13.5523 2 14 2.44772 14 3V13C14 13.5523 13.5523 14 13 14H6L6 2ZM5 2H3C2.44772 2 2 2.44772 2 3V13C2 13.5523 2.44772 14 3 14H5L5 2ZM1 3C1 1.89543 1.89543 1 3 1H13C14.1046 1 15 1.89543 15 3V13C15 14.1046 14.1046 15 13 15H3C1.89543 15 1 14.1046 1 13V3Z" fill="#ABBED1"/>
<path d="M11 5.5L9.49976 7.3753C9.20758 7.74052 9.20758 8.25948 9.49976 8.6247L11 10.5" stroke="#ABBED1" stroke-linecap="round"/>
</symbol>
<symbol id='sidebarOpen' width="16" height="16" viewBox="0 0 16 16" fill="none" xmlns="http://www.w3.org/2000/svg">
<path fill-rule="evenodd" clip-rule="evenodd" d="M6 2H13C13.5523 2 14 2.44772 14 3V13C14 13.5523 13.5523 14 13 14H6L6 2ZM5 2H3C2.44772 2 2 2.44772 2 3V13C2 13.5523 2.44772 14 3 14H5L5 2ZM1 3C1 1.89543 1.89543 1 3 1H13C14.1046 1 15 1.89543 15 3V13C15 14.1046 14.1046 15 13 15H3C1.89543 15 1 14.1046 1 13V3Z" fill="#ABBED1"/>
<path d="M9 5.5L10.5002 7.3753C10.7924 7.74052 10.7924 8.25948 10.5002 8.6247L9 10.5" stroke="#ABBED1" stroke-linecap="round"/>
</symbol>

<symbol id="eyeOff" width="20" height="18" viewBox="0 0 20 18" fill="none" xmlns="http://www.w3.org/2000/svg">
<path d="M18.7994 8.21558L19.4575 7.85572L18.7994 8.21558ZM18.7994 9.78456L19.4574 10.1444L18.7994 9.78456ZM1.20058 8.21544L1.8586 8.57531L1.20058 8.21544ZM1.20057 9.78442L0.54254 10.1443H0.54254L1.20057 9.78442ZM17.5236 5.30907C17.227 5.0199 16.7522 5.0259 16.463 5.32247C16.1738 5.61904 16.1798 6.09387 16.4764 6.38304L17.5236 5.30907ZM7.68628 13.9596C7.28505 13.8567 6.87638 14.0986 6.7735 14.4998C6.67062 14.9011 6.91249 15.3097 7.31372 15.4126L7.68628 13.9596ZM12.604 3.34114L12.4099 4.06559L12.604 3.34114ZM5.07264 13.7089L4.70374 14.3619L5.50475 13.0959L5.07264 13.7089ZM1.8586 8.57531C3.43153 5.69919 6.4879 3.75 9.99997 3.75V2.25C5.91882 2.25 2.36847 4.51686 0.542558 7.85557L1.8586 8.57531ZM18.1414 9.42469C16.5685 12.3008 13.5121 14.25 10 14.25V15.75C14.0812 15.75 17.6315 13.4831 19.4574 10.1444L18.1414 9.42469ZM18.1414 8.57544C18.2862 8.84022 18.2862 9.15992 18.1414 9.42469L19.4574 10.1444C19.8475 9.43118 19.8475 8.56898 19.4575 7.85572L18.1414 8.57544ZM0.542558 7.85557C0.152487 8.56882 0.15248 9.43102 0.54254 10.1443L1.8586 9.42456C1.7138 9.15979 1.7138 8.84008 1.8586 8.57531L0.542558 7.85557ZM16.4764 6.38304C17.1347 7.02488 17.6974 7.76347 18.1414 8.57544L19.4575 7.85572C18.9413 6.91179 18.2876 6.05403 17.5236 5.30907L16.4764 6.38304ZM10 14.25C9.20019 14.25 8.42506 14.1491 7.68628 13.9596L7.31372 15.4126C8.17323 15.633 9.07349 15.75 10 15.75V14.25ZM9.99997 3.75C10.8346 3.75 11.6423 3.85991 12.4099 4.06559L12.7981 2.6167C11.905 2.37739 10.9668 2.25 9.99997 2.25V3.75ZM3.92995 11.9904C3.09529 11.2678 2.39151 10.399 1.8586 9.42456L0.54254 10.1443C1.16202 11.2771 1.97944 12.2858 2.94816 13.1244L3.92995 11.9904ZM5.44154 13.0559C4.90181 12.751 4.3956 12.3935 3.92995 11.9904L2.94816 13.1244C3.48873 13.5924 4.07659 14.0076 4.70374 14.3619L5.44154 13.0559ZM3.00695 13.1704L4.64054 14.3219L5.50475 13.0959L3.87116 11.9444L3.00695 13.1704ZM12.4099 4.06559C13.1269 4.2577 13.8096 4.53359 14.4471 4.88219L15.1668 3.56615C14.426 3.161 13.6321 2.84016 12.7981 2.6167L12.4099 4.06559Z" fill="#A6A6A6"/>
<path d="M17.4644 1.46436L2.46436 16.4644" stroke="#A6A6A6" stroke-width="1.5" stroke-linecap="round" stroke-linejoin="round"/>
<path d="M7 9C7 7.34315 8.34315 6 10 6" stroke="#A6A6A6" stroke-width="1.5" stroke-linecap="round"/>
</symbol>

<symbol id="inputSearch" width="18" height="19" viewBox="0 0 18 19" fill="none" xmlns="http://www.w3.org/2000/svg">
<ellipse cx="8.16667" cy="8.16667" rx="6.66667" ry="6.66667" stroke="#A6A6A6" stroke-width="1.5" stroke-linecap="round" stroke-linejoin="round"/>
<path d="M12.75 13.1318L16.9167 17.2985" stroke="#A6A6A6" stroke-width="1.5" stroke-linecap="round" stroke-linejoin="round"/>
</symbol>

<symbol id="warning" width="14" height="13" viewBox="0 0 14 13" fill="none" xmlns="http://www.w3.org/2000/svg">
<path d="M1 9.87844C1 9.51512 1.0933 9.15789 1.27096 8.84098L4.977 2.23022C5.30887 1.63823 5.88339 1.22131 6.54911 1.08937V1.08937C6.84681 1.03036 7.15319 1.03036 7.45089 1.08937V1.08937C8.11661 1.22131 8.69113 1.63823 9.023 2.23021L12.729 8.84098C12.9067 9.15789 13 9.51512 13 9.87844V9.87844C13 11.0501 12.0501 12 10.8784 12H3.12156C1.94986 12 1 11.0501 1 9.87844V9.87844Z" stroke="#E48900" stroke-width="1.1"/>
<path d="M7 4.99984L7 7.6665" stroke="#E48900" stroke-width="1.1" stroke-linecap="round" stroke-linejoin="round"/>
<path d="M7 9.66667L7 10" stroke="#E48900" stroke-width="1.1" stroke-linecap="round" stroke-linejoin="round"/>
</symbol>

<symbol id="error" width="14" height="13" viewBox="0 0 16 16" fill="none" xmlns="http://www.w3.org/2000/svg">
<path d="M12 4L4 12" stroke="#E02B1D" stroke-width="1.1" stroke-linecap="round" stroke-linejoin="round"/>
<path d="M4 4L12 12" stroke="#E02B1D" stroke-width="1.1" stroke-linecap="round" stroke-linejoin="round"/>
</symbol>

<symbol id="success" width="14" height="13" viewBox="0 0 16 16" fill="none" xmlns="http://www.w3.org/2000/svg">
<path d="M13.3337 4L6.00033 11.3333L2.66699 8" stroke="#009262" stroke-width="1.1" stroke-linecap="round" stroke-linejoin="round"/>
</symbol>

</svg>
